<?xml version="1.0" encoding="utf-8"?>
<svg viewBox="26.099 380.615 55.449 12.485" width="55.449" height="12.485" xmlns="http://www.w3.org/2000/svg">
  <defs>
    <style type="text/css">
	.st0{fill:#0D4D84;}
</style>
  </defs>
  <path class="st0" d="M 32.152 388.026 C 32.152 387.887 32.152 387.694 32.115 387.546 C 31.957 386.853 31.384 386.262 30.572 386.262 C 29.36 386.262 28.751 387.333 28.751 388.663 C 28.751 390.097 29.462 391.002 30.553 391.002 C 31.31 391.002 31.94 390.484 32.096 389.737 C 32.133 389.542 32.152 389.339 32.152 389.126 L 32.152 388.026 Z M 34.785 380.615 L 34.785 390.374 C 34.785 391.326 34.823 392.333 34.85 392.897 L 32.522 392.897 L 32.42 391.668 L 32.365 391.668 C 31.847 392.601 30.802 393.091 29.713 393.091 C 27.706 393.091 26.099 391.381 26.099 388.747 C 26.08 385.892 27.863 384.228 29.887 384.228 C 30.94 384.228 31.735 384.607 32.124 385.18 L 32.162 385.18 L 32.162 380.615 L 34.785 380.615 M 38.26 388.663 C 38.26 390.114 38.871 391.205 39.989 391.205 C 41.024 391.205 41.671 390.188 41.671 388.646 C 41.671 387.398 41.189 386.123 39.989 386.123 C 38.75 386.123 38.26 387.417 38.26 388.663 Z M 44.387 388.581 C 44.387 391.677 42.189 393.1 39.924 393.1 C 37.447 393.1 35.544 391.474 35.544 388.737 C 35.544 385.984 37.346 384.238 40.081 384.238 C 42.659 384.238 44.387 386.021 44.387 388.581 M 51.56 392.684 C 51.087 392.906 50.211 393.081 49.202 393.081 C 46.467 393.081 44.721 391.4 44.721 388.756 C 44.721 386.279 46.421 384.256 49.562 384.256 C 50.256 384.256 51.014 384.376 51.569 384.589 L 51.152 386.548 C 50.839 386.409 50.376 386.288 49.683 386.288 C 48.297 386.288 47.4 387.278 47.419 388.663 C 47.419 390.207 48.454 391.04 49.739 391.04 C 50.357 391.04 50.848 390.938 51.245 390.761 L 51.56 392.684 M 57.076 387.713 C 57.076 387.074 56.799 386.002 55.589 386.002 C 54.479 386.002 54.027 387.028 53.963 387.713 L 57.076 387.713 Z M 53.98 389.515 C 54.054 390.605 55.135 391.122 56.365 391.122 C 57.262 391.122 57.992 391.002 58.703 390.761 L 59.045 392.546 C 58.176 392.906 57.123 393.081 55.985 393.081 C 53.111 393.081 51.467 391.418 51.467 388.775 C 51.467 386.631 52.798 384.256 55.746 384.256 C 58.481 384.256 59.517 386.381 59.517 388.479 C 59.517 388.932 59.46 389.329 59.434 389.515 L 53.98 389.515 M 62.862 389.302 C 62.862 389.477 62.88 389.634 62.917 389.773 C 63.093 390.465 63.694 391.021 64.461 391.021 C 65.588 391.021 66.281 390.152 66.281 388.637 C 66.281 387.324 65.69 386.279 64.461 386.279 C 63.749 386.279 63.093 386.816 62.917 387.574 C 62.88 387.73 62.862 387.887 62.862 388.054 L 62.862 389.302 Z M 60.228 380.615 L 62.862 380.615 L 62.862 385.448 L 62.899 385.448 C 63.398 384.718 64.286 384.256 65.458 384.256 C 67.482 384.256 68.952 385.937 68.933 388.534 C 68.933 391.584 67.012 393.1 65.071 393.1 C 64.081 393.1 63.112 392.74 62.529 391.732 L 62.501 391.732 L 62.4 392.906 L 60.164 392.906 C 60.2 392.351 60.228 391.334 60.228 390.383 L 60.228 380.615 M 72.002 388.663 C 72.002 390.114 72.612 391.205 73.731 391.205 C 74.765 391.205 75.412 390.188 75.412 388.646 C 75.412 387.398 74.931 386.123 73.731 386.123 C 72.483 386.123 72.002 387.417 72.002 388.663 Z M 78.129 388.581 C 78.129 391.677 75.929 393.1 73.666 393.1 C 71.189 393.1 69.284 391.474 69.284 388.737 C 69.284 385.984 71.087 384.238 73.822 384.238 C 76.401 384.238 78.129 386.021 78.129 388.581 M 80.07 385.642 L 80.209 385.642 C 80.366 385.642 80.495 385.586 80.495 385.457 C 80.495 385.346 80.412 385.264 80.227 385.264 C 80.153 385.264 80.097 385.272 80.07 385.281 L 80.07 385.642 Z M 80.061 386.353 L 79.774 386.353 L 79.774 385.097 C 79.884 385.078 80.051 385.059 80.254 385.059 C 80.495 385.059 80.597 385.097 80.679 385.161 C 80.753 385.217 80.81 385.309 80.81 385.429 C 80.81 385.586 80.698 385.679 80.55 385.725 L 80.55 385.744 C 80.671 385.78 80.736 385.882 80.772 386.049 C 80.81 386.243 80.837 386.307 80.865 386.353 L 80.56 386.353 C 80.523 386.307 80.495 386.197 80.457 386.049 C 80.44 385.919 80.357 385.854 80.199 385.854 L 80.061 385.854 L 80.061 386.353 Z M 79.285 385.698 C 79.285 386.252 79.71 386.696 80.264 386.696 C 80.81 386.705 81.225 386.252 81.225 385.698 C 81.225 385.143 80.81 384.691 80.254 384.691 C 79.71 384.699 79.285 385.152 79.285 385.698 Z M 81.548 385.698 C 81.548 386.4 80.985 386.964 80.264 386.964 C 79.543 386.964 78.97 386.409 78.97 385.698 C 78.97 384.995 79.543 384.441 80.273 384.441 C 80.975 384.441 81.548 384.995 81.548 385.698" style="fill: rgb(52, 134, 224);"/>
</svg>