<?xml version="1.0" encoding="utf-8"?>
<svg viewBox="-121.05 -162.701 974.728 755.915" width="974.728" height="755.915" xmlns="http://www.w3.org/2000/svg">
  <g id="Livello_2" transform="matrix(1, 0, 0, 1, -162.522964, -164.219986)">
    <g>
      <g>
        <g>
          <path class="st0" d="M449.82,369.64c5.08-2.89,10.76-4.42,16.46-4.53c2.73-0.06,5.46,0.19,8.15,0.79 c5.69,1.22,11.15,3.9,15.8,8.06c1.69,1.51,3.2,3.13,4.5,4.87c8.4,11,9.46,26,2.77,38.05c4.05,1.46,7.92,3.7,11.33,6.74 c1.95,1.74,3.64,3.62,5.09,5.64c7.36,10.22,8.58,23.64,3.39,34.94c8.71,1.32,17.15,5.09,24.2,11.4 c7.07,6.32,11.78,14.3,14.08,22.83c5.56,1.98,10.88,5.03,15.56,9.21c6.23,5.56,10.63,12.39,13.15,19.75 c4.52,13.13,3.12,27.92-4.47,40.13c-0.9,1.48-1.91,2.92-3.02,4.3c-0.09,0.13-0.18,0.27-0.28,0.39c-0.53,0.66-1.07,1.3-1.63,1.92 c-0.79,0.88-1.61,1.73-2.46,2.52c-4.5,4.35-9.7,7.62-15.21,9.81c8.75,12.93,8.01,30.58-2.87,42.77c-1.07,1.2-2.22,2.28-3.43,3.3 c9.98,11.35,13.66,26.47,10.76,40.62c-0.08,0.33-0.12,0.65-0.2,0.98c-0.47,1.99-1.06,3.98-1.77,5.9 c-1.71,4.64-4.21,9.08-7.46,13.12c-0.51,0.61-1.02,1.21-1.55,1.81l-0.26,0.29c55.47,41.66,124.44,62.28,193.76,57.81 c2.07-0.13,4.15-0.28,6.23-0.46c6.22-0.56,12.45-1.3,18.66-2.23c2.76-0.43,5.53-0.91,8.28-1.4c1.78-0.33,3.58-0.67,5.36-1.03 c1.78-0.36,3.54-0.73,5.32-1.12c3.54-0.79,7.09-1.64,10.62-2.56c15.93-4.18,31.72-9.76,47.14-16.8c3.43-1.56,6.84-3.2,10.22-4.9 c1.7-0.85,3.41-1.74,5.09-2.63c104.02-54.94,161.01-164.02,154.58-274.28c-0.17-2.74-0.37-5.48-0.59-8.23c0,0,0,0-0.02-0.02 c-0.22-2.75-0.5-5.5-0.82-8.25c-0.43-3.64-0.93-7.31-1.49-10.97c-1.08-6.83-2.38-13.69-3.95-20.51 c-0.53-2.27-1.09-4.53-1.65-6.8c-0.46-1.81-0.94-3.61-1.45-5.43c-0.99-3.62-2.06-7.23-3.21-10.81 c-5.17-16.18-11.83-32.14-20.03-47.68c-4.16-7.88-8.62-15.49-13.39-22.82c-0.9-1.38-1.79-2.73-2.71-4.09 c-1.82-2.69-3.69-5.37-5.58-7.99c-0.96-1.31-1.92-2.62-2.89-3.92c-0.02-0.02-0.02-0.02-0.02-0.02 c-2.59-3.44-5.24-6.81-7.93-10.13l-0.05-0.05c-11.79-14.36-24.78-27.37-38.75-38.96c-59.05-49-135.56-72.79-211.92-65.96 c-3.55,0.33-7.11,0.71-10.65,1.16c-33.73,4.28-67.26,14.6-99.1,31.4C520.93,241.77,472.78,301.51,449.82,369.64z M624.3,452.16 c0.1-0.83,0.18-1.63,0.31-2.49c0.03-0.37,0.1-0.76,0.14-1.18c0.12-0.81,0.26-1.59,0.38-2.4c0.3-2.01,0.71-3.99,1.21-5.98 c0.2-1.01,0.45-2,0.72-2.98c0.27-0.98,0.53-1.96,0.82-2.92c0.21-0.75,0.41-1.49,0.66-2.18l0.32-0.97 c0.27-0.92,0.57-1.8,0.93-2.67c0.33-0.98,0.69-1.94,1.06-2.86c0.38-0.97,0.76-1.88,1.17-2.85c0.79-1.88,1.64-3.74,2.56-5.53 c0.56-1.14,1.16-2.25,1.77-3.38c0.86-1.58,1.77-3.14,2.73-4.65c0.6-0.98,1.24-1.97,1.88-2.92c0.49-0.75,0.99-1.49,1.53-2.22 c0.51-0.7,1-1.39,1.51-2.06c2.06-2.75,4.26-5.42,6.62-7.99c1.03-1.12,2.06-2.21,3.14-3.25c0.27-0.27,0.56-0.56,0.87-0.84 c0.73-0.75,1.49-1.47,2.27-2.17c0.87-0.77,1.78-1.58,2.68-2.32c2.32-1.98,4.72-3.85,7.25-5.63c1.73-1.22,3.55-2.4,5.39-3.52 c0.84-0.53,1.71-1.03,2.55-1.49c1.03-0.6,2.09-1.21,3.13-1.77c47.66-25.16,106.3-8.6,134.01,36.78c0.42,0.68,0.85,1.4,1.26,2.1 c0.66,1.14,1.3,2.32,1.95,3.51c0.56,1.08,1.08,2.12,1.6,3.22c0.74,1.42,1.37,2.86,1.98,4.32c0.37,0.88,0.76,1.74,1.1,2.62 c0.49,1.19,0.92,2.41,1.34,3.6c0.23,0.6,0.42,1.23,0.6,1.85c0.67,1.94,1.26,3.9,1.76,5.86c0.26,0.93,0.49,1.9,0.72,2.84 c0.15,0.59,0.26,1.17,0.39,1.75c0.17,0.79,0.33,1.57,0.47,2.37c0.27,1.33,0.51,2.7,0.7,4.06c0.13,0.94,0.28,1.9,0.37,2.86 c0.07,0.46,0.14,0.97,0.16,1.45c0.26,2.33,0.43,4.7,0.51,7.03c0.03,1.16,0.05,2.3,0.07,3.44c-0.01,1.21-0.04,2.4-0.05,3.6 c0,0.03-0.03,0.07-0.01,0.08c-0.06,1.22-0.12,2.45-0.21,3.68c-0.06,1.22-0.2,2.44-0.34,3.65c-0.12,1.23-0.25,2.42-0.45,3.64 c-0.36,2.48-0.8,4.95-1.35,7.37c-0.26,1.14-0.52,2.25-0.81,3.36c-0.47,1.89-1.01,3.79-1.6,5.6c-0.53,1.65-1.09,3.26-1.69,4.85 c-0.43,1.13-0.89,2.25-1.35,3.39c-0.04,0.15-0.11,0.3-0.17,0.46c-0.41,1-0.84,1.96-1.3,2.89c-0.85,1.94-1.82,3.85-2.86,5.75 c-1.51,2.82-3.17,5.6-4.95,8.27c-1.78,2.67-3.7,5.27-5.75,7.77c-6.75,8.3-14.9,15.63-24.35,21.58 c-2.23,1.44-4.54,2.76-6.91,4.02c-40.66,21.47-89.28,12.61-119.89-18.6c-0.24-0.24-0.46-0.47-0.68-0.73 c-6.47-6.66-12.09-14.36-16.66-23.04c-2.5-4.73-4.57-9.56-6.26-14.45C624.32,481.44,622.77,466.58,624.3,452.16z" style="opacity: 0.05;"/>
          <path class="st1" d="M459.35,385.66c4.91-2.8,10.42-4.28,15.93-4.38c2.64-0.06,5.29,0.18,7.89,0.77 c5.51,1.18,10.79,3.78,15.3,7.8c1.64,1.46,3.1,3.03,4.36,4.72c8.13,10.65,9.15,25.17,2.69,36.83c3.92,1.41,7.67,3.58,10.96,6.52 c1.88,1.68,3.53,3.5,4.93,5.46c7.12,9.9,8.31,22.89,3.28,33.83c8.43,1.28,16.6,4.93,23.43,11.03 c6.85,6.12,11.41,13.84,13.63,22.1c5.38,1.92,10.53,4.87,15.07,8.92c6.03,5.39,10.29,11.99,12.73,19.12 c4.37,12.71,3.02,27.03-4.33,38.85c-0.87,1.43-1.85,2.83-2.92,4.16c-0.09,0.13-0.17,0.26-0.27,0.37 c-0.51,0.64-1.03,1.26-1.58,1.86c-0.76,0.85-1.55,1.68-2.38,2.44c-4.35,4.21-9.39,7.38-14.73,9.5 c8.47,12.51,7.75,29.61-2.78,41.41c-1.04,1.16-2.15,2.21-3.32,3.19c9.66,10.99,13.23,25.63,10.42,39.32 c-0.08,0.32-0.12,0.63-0.2,0.94c-0.45,1.92-1.03,3.85-1.72,5.71c-1.66,4.5-4.08,8.79-7.22,12.7c-0.5,0.59-0.99,1.18-1.5,1.75 l-0.25,0.28c53.7,40.34,120.48,60.3,187.59,55.96c2-0.13,4.01-0.27,6.03-0.45c6.02-0.54,12.05-1.26,18.07-2.16 c2.67-0.42,5.35-0.88,8.01-1.35c1.72-0.32,3.46-0.65,5.19-0.99c1.72-0.35,3.43-0.71,5.15-1.08c3.43-0.77,6.87-1.59,10.29-2.48 c15.43-4.04,30.71-9.45,45.64-16.27c3.32-1.51,6.63-3.1,9.89-4.74c1.65-0.82,3.3-1.68,4.93-2.55 c100.71-53.19,155.88-158.8,149.66-265.55c-0.17-2.65-0.36-5.3-0.57-7.97c0,0,0,0-0.02-0.01c-0.21-2.66-0.49-5.33-0.79-7.98 c-0.42-3.52-0.9-7.08-1.44-10.62c-1.04-6.62-2.3-13.25-3.83-19.86c-0.51-2.2-1.06-4.39-1.6-6.59c-0.44-1.75-0.91-3.5-1.4-5.26 c-0.96-3.51-2-7-3.11-10.47c-5.01-15.67-11.45-31.11-19.39-46.16c-4.03-7.63-8.35-15-12.96-22.09 c-0.87-1.34-1.74-2.64-2.62-3.96c-1.77-2.61-3.58-5.2-5.4-7.74c-0.93-1.27-1.85-2.54-2.8-3.79c-0.02-0.01-0.02-0.01-0.02-0.01 c-2.51-3.33-5.07-6.59-7.68-9.81l-0.05-0.04c-11.41-13.9-24-26.5-37.51-37.72c-57.17-47.44-131.24-70.47-205.17-63.86 c-3.44,0.32-6.89,0.68-10.32,1.13c-32.66,4.15-65.12,14.13-95.94,30.4C528.2,261.87,481.58,319.7,459.35,385.66z M628.28,465.55 c0.09-0.8,0.18-1.58,0.3-2.41c0.03-0.36,0.1-0.74,0.14-1.14c0.11-0.78,0.26-1.54,0.37-2.32c0.29-1.95,0.68-3.87,1.17-5.79 c0.19-0.98,0.44-1.94,0.69-2.89s0.52-1.9,0.79-2.83c0.21-0.73,0.4-1.44,0.64-2.11l0.31-0.94c0.26-0.89,0.56-1.74,0.9-2.59 c0.32-0.95,0.67-1.87,1.03-2.77c0.37-0.94,0.74-1.82,1.14-2.76c0.77-1.82,1.58-3.62,2.48-5.35c0.54-1.1,1.12-2.18,1.71-3.27 c0.83-1.53,1.71-3.04,2.64-4.51c0.58-0.95,1.2-1.9,1.82-2.83c0.47-0.73,0.96-1.44,1.48-2.15c0.49-0.68,0.97-1.35,1.46-2 c2-2.66,4.12-5.24,6.41-7.74c1-1.08,2-2.14,3.04-3.14c0.27-0.26,0.54-0.54,0.84-0.81c0.71-0.72,1.44-1.42,2.2-2.1 c0.84-0.75,1.72-1.53,2.6-2.25c2.24-1.92,4.57-3.73,7.02-5.45c1.68-1.18,3.43-2.33,5.22-3.41c0.81-0.51,1.66-1,2.47-1.45 c0.99-0.59,2.02-1.17,3.03-1.71c46.15-24.36,102.91-8.33,129.74,35.61c0.41,0.66,0.82,1.35,1.22,2.03 c0.64,1.1,1.26,2.25,1.89,3.39c0.54,1.04,1.05,2.06,1.55,3.12c0.72,1.38,1.32,2.77,1.92,4.19c0.36,0.85,0.73,1.69,1.06,2.54 c0.47,1.16,0.89,2.33,1.3,3.49c0.22,0.58,0.41,1.19,0.58,1.79c0.65,1.88,1.22,3.77,1.71,5.68c0.25,0.9,0.48,1.84,0.7,2.75 c0.14,0.57,0.25,1.14,0.38,1.69c0.17,0.77,0.32,1.52,0.46,2.29c0.26,1.29,0.49,2.62,0.67,3.93c0.13,0.91,0.27,1.84,0.36,2.76 c0.07,0.45,0.13,0.94,0.16,1.41c0.25,2.26,0.41,4.55,0.49,6.8c0.03,1.12,0.05,2.22,0.06,3.33c-0.01,1.17-0.04,2.32-0.05,3.49 c0,0.03-0.03,0.06-0.01,0.08c-0.06,1.19-0.11,2.37-0.2,3.56c-0.06,1.19-0.19,2.36-0.33,3.54c-0.12,1.19-0.24,2.35-0.44,3.53 c-0.35,2.4-0.77,4.79-1.31,7.14c-0.25,1.1-0.5,2.18-0.78,3.25c-0.46,1.83-0.98,3.67-1.55,5.42c-0.52,1.6-1.05,3.16-1.63,4.7 c-0.42,1.1-0.86,2.18-1.31,3.28c-0.04,0.14-0.11,0.29-0.16,0.44c-0.4,0.97-0.81,1.9-1.26,2.79c-0.83,1.88-1.77,3.73-2.77,5.57 c-1.46,2.73-3.07,5.42-4.79,8c-1.72,2.59-3.59,5.1-5.57,7.52c-6.53,8.04-14.43,15.13-23.58,20.89c-2.16,1.4-4.39,2.68-6.69,3.89 c-39.36,20.78-86.43,12.21-116.07-18c-0.23-0.24-0.45-0.46-0.66-0.71c-6.26-6.45-11.71-13.9-16.13-22.31 c-2.42-4.58-4.43-9.26-6.06-13.99C628.29,493.9,626.8,479.51,628.28,465.55z" style="fill: rgb(175, 154, 0);"/>
          <path class="st2" d="M459.35,385.66c4.91-2.8,10.42-4.28,15.93-4.38c23.28-55.15,65.02-102.91,122.08-133.02 c99.14-52.35,216.15-36.53,297.38,30.86c26.35,21.85,48.96,49.18,65.94,81.35c69.34,131.3,19.08,293.97-112.22,363.31 c-24.95,13.19-51.05,22.04-77.41,26.84c-75.21,13.72-152.68-5.57-212.53-51.76c-0.5,0.59-0.99,1.18-1.5,1.75l-0.25,0.28 c53.7,40.34,120.48,60.3,187.59,55.96c2-0.13,4.01-0.27,6.03-0.45c6.04-0.53,12.07-1.24,18.07-2.16 c2.68-0.4,5.37-0.86,8.03-1.34c1.72-0.32,3.45-0.66,5.17-1.01c1.72-0.35,3.43-0.71,5.15-1.08c3.43-0.77,6.87-1.59,10.29-2.48 c15.43-4.04,30.71-9.45,45.64-16.27c3.32-1.51,6.63-3.1,9.89-4.74c1.65-0.82,3.3-1.68,4.93-2.55 c100.71-53.19,155.88-158.8,149.66-265.55c-0.17-2.65-0.36-5.3-0.57-7.97c0,0,0,0-0.02-0.01c-0.21-2.66-0.49-5.33-0.79-7.98 c-0.42-3.52-0.9-7.08-1.44-10.62c-1.04-6.62-2.3-13.25-3.83-19.86c-0.51-2.2-1.06-4.39-1.6-6.59c-0.44-1.75-0.91-3.5-1.4-5.26 c-0.96-3.51-2-7-3.11-10.47c-5.01-15.67-11.45-31.11-19.39-46.16c-4.03-7.63-8.35-15-12.96-22.09 c-0.87-1.34-1.74-2.64-2.62-3.96c-1.77-2.61-3.58-5.2-5.4-7.74c-0.93-1.27-1.85-2.54-2.8-3.79c-0.02-0.01-0.02-0.01-0.02-0.01 c-2.51-3.33-5.07-6.59-7.68-9.81l-0.05-0.04c-11.41-13.9-24-26.5-37.51-37.72c-57.17-47.44-131.24-70.47-205.17-63.86 c-3.44,0.32-6.89,0.68-10.32,1.13c-32.66,4.15-65.12,14.13-95.94,30.4C528.2,261.87,481.58,319.7,459.35,385.66z" style="fill: rgb(237, 206, 122);"/>
          <path class="st3" d="M483.17,382.04c5.51,1.18,10.79,3.78,15.3,7.8c1.64,1.46,3.1,3.03,4.36,4.72 c8.13,10.65,9.15,25.17,2.69,36.83c3.92,1.41,7.67,3.58,10.96,6.52c1.88,1.68,3.53,3.5,4.93,5.46 c7.12,9.9,8.31,22.89,3.28,33.83c8.43,1.28,16.6,4.93,23.43,11.03c6.85,6.12,11.41,13.84,13.63,22.1 c5.38,1.92,10.53,4.87,15.07,8.92c6.03,5.39,10.29,11.99,12.73,19.12c4.37,12.71,3.02,27.03-4.33,38.85 c-0.87,1.43-1.85,2.83-2.92,4.16c-0.09,0.13-0.17,0.26-0.27,0.37c-0.51,0.64-1.03,1.26-1.58,1.86 c-0.76,0.85-1.55,1.68-2.38,2.44c-4.35,4.21-9.39,7.38-14.73,9.5c8.47,12.51,7.75,29.61-2.78,41.41 c-1.04,1.16-2.15,2.21-3.32,3.19c9.66,10.99,13.23,25.63,10.42,39.32c-0.08,0.32-0.12,0.63-0.2,0.94 c-0.45,1.92-1.03,3.85-1.72,5.71c57.97,44.62,132.98,63.25,205.8,49.99c25.55-4.66,50.87-13.25,75.07-26.04 C973.9,642.9,1022.64,485.2,955.41,357.9c-16.47-31.2-38.39-57.68-63.94-78.88c-78.75-65.33-192.19-80.66-288.31-29.91 C546.49,279.02,505.39,326.89,483.17,382.04z M634.64,467.9c0.03-0.33,0.09-0.69,0.13-1.07c0.1-0.71,0.25-1.43,0.33-2.15 c0.29-1.81,0.64-3.58,1.1-5.38c0.17-0.88,0.38-1.78,0.64-2.67c0.23-0.85,0.46-1.74,0.72-2.62c0.2-0.65,0.38-1.31,0.61-1.93 l0.26-0.85c0.26-0.82,0.55-1.6,0.84-2.4c0.29-0.89,0.6-1.73,0.94-2.57c0.34-0.87,0.68-1.69,1.04-2.55 c0.73-1.68,1.48-3.34,2.3-4.95c0.52-1.01,1.05-2,1.59-3.03c0.76-1.41,1.58-2.8,2.44-4.15c0.56-0.89,1.11-1.77,1.69-2.65 c0.45-0.66,0.89-1.33,1.38-1.98c0.45-0.63,0.88-1.25,1.34-1.87c1.84-2.45,3.82-4.84,5.93-7.17c0.93-0.97,1.85-1.94,2.82-2.9 c0.24-0.23,0.5-0.49,0.77-0.76c0.68-0.63,1.36-1.29,2.05-1.94c0.77-0.7,1.59-1.41,2.39-2.08c2.09-1.78,4.26-3.45,6.5-5.03 c1.57-1.1,3.19-2.16,4.85-3.18c0.75-0.45,1.52-0.91,2.27-1.33c0.93-0.55,1.87-1.07,2.82-1.58 c43.38-22.91,96.87-7.24,121.23,34.84c0.6,1.04,1.18,2.08,1.75,3.15c0.5,0.95,0.98,1.91,1.44,2.88 c0.65,1.29,1.23,2.58,1.77,3.88c0.34,0.77,0.66,1.57,0.97,2.34c0.45,1.08,0.82,2.15,1.21,3.23c0.2,0.53,0.39,1.11,0.55,1.67 c0.6,1.74,1.13,3.48,1.59,5.25c0.22,0.84,0.42,1.7,0.64,2.55c0.12,0.52,0.23,1.06,0.34,1.57c0.16,0.71,0.3,1.41,0.43,2.12 c0.22,1.2,0.46,2.42,0.61,3.64c0.13,0.85,0.27,1.68,0.35,2.55c0.06,0.43,0.1,0.88,0.15,1.31c0.23,2.09,0.38,4.2,0.45,6.29 c0.03,1.03,0.04,2.07,0.05,3.08c0,1.06-0.03,2.15-0.05,3.22c0,0.03-0.01,0.08,0.01,0.09c-0.06,1.09-0.09,2.18-0.19,3.28 c-0.09,1.09-0.19,2.19-0.3,3.27c-0.14,1.08-0.27,2.18-0.42,3.28c-0.33,2.21-0.71,4.43-1.2,6.62c-0.24,0.99-0.46,2-0.73,3 c-0.42,1.69-0.91,3.4-1.43,5.03c-0.49,1.47-0.97,2.9-1.51,4.33c-0.39,1-0.79,2.04-1.21,3.04c-0.04,0.14-0.09,0.27-0.16,0.41 c-0.35,0.89-0.74,1.75-1.15,2.57c-0.79,1.77-1.64,3.48-2.57,5.16c-0.69,1.27-1.4,2.52-2.12,3.76c-0.74,1.26-1.53,2.47-2.3,3.66 c-1.61,2.39-3.33,4.75-5.16,6.97c-6.05,7.44-13.35,14-21.83,19.36c-2.01,1.27-4.08,2.46-6.21,3.59 c-36.41,19.23-79.99,11.3-107.43-16.65c-6.06-6.15-11.32-13.29-15.57-21.33c-2.23-4.23-4.09-8.58-5.6-12.96 c-4.43-12.79-5.78-26.11-4.43-39.04C634.46,469.39,634.52,468.65,634.64,467.9z" style="fill: rgb(246, 200, 53);"/>
          <path class="st4" d="M483.17,382.04c5.51,1.18,10.79,3.78,15.3,7.8c1.64,1.46,3.1,3.03,4.36,4.72 c21.22-45.06,56.7-83.83,104.1-108.87c89.42-47.21,195.29-31.78,267.32,30.82c21.53,18.73,40.09,41.7,54.23,68.5 c61.36,116.19,16.89,260.18-99.3,321.54c-19.84,10.47-40.48,17.84-61.42,22.32c-16.2,3.47-32.6,5.2-48.89,5.23 c-49.97,0.14-99.03-15.51-139.7-44.68c-3.99-2.86-7.91-5.86-11.71-8.99c-0.45,1.92-1.03,3.85-1.72,5.71 c57.97,44.62,132.98,63.25,205.8,49.99c25.55-4.66,50.87-13.25,75.07-26.04C973.9,642.9,1022.64,485.2,955.41,357.9 c-16.47-31.2-38.39-57.68-63.94-78.88c-78.75-65.33-192.19-80.66-288.31-29.91C546.49,279.02,505.39,326.89,483.17,382.04z" style="fill: rgb(221, 192, 25);"/>
          <g>
            <path class="st7" d="M914.61,514.23l9.74,34.96c0.69,2.46-0.75,5.01-3.21,5.7l0,0c-2.46,0.69-5.01-0.75-5.7-3.21l-9.74-34.96 c-0.69-2.46,0.75-5.01,3.21-5.7l0,0C911.38,510.33,913.93,511.77,914.61,514.23z" style="fill: rgb(139, 208, 226);"/>
            <path class="st8" d="M908.92,511.02c1.23-0.34,2.48-0.16,3.51,0.42c1.02,0.59,1.83,1.56,2.18,2.79l9.74,34.97 c0.69,2.46-0.75,5-3.21,5.69c-0.08,0.02-0.19,0.05-0.27,0.06c0.38-0.92,0.47-1.97,0.18-2.99L911.32,517 c-0.34-1.23-1.16-2.2-2.18-2.79c-0.95-0.53-2.1-0.74-3.24-0.49C906.4,512.45,907.49,511.42,908.92,511.02z" style="fill: rgb(165, 225, 239);"/>
          </g>
          <g>
            <path class="st7" d="M805.8,608.65l33.25,14.55c2.34,1.02,3.41,3.75,2.38,6.09l0,0c-1.02,2.34-3.75,3.41-6.09,2.38 l-33.25-14.55c-2.34-1.02-3.41-3.75-2.38-6.09l0,0C800.73,608.69,803.46,607.62,805.8,608.65z" style="fill: rgb(139, 208, 226);"/>
            <path class="st8" d="M799.72,611.03c0.51-1.17,1.44-2.02,2.55-2.46c1.1-0.42,2.37-0.43,3.54,0.08l33.26,14.55 c2.34,1.02,3.4,3.74,2.38,6.08c-0.04,0.08-0.08,0.18-0.13,0.25c-0.48-0.88-1.23-1.61-2.2-2.03l-33.24-14.54 c-1.17-0.51-2.44-0.49-3.54-0.08c-1.01,0.4-1.9,1.15-2.43,2.2C799.23,613.89,799.12,612.39,799.72,611.03z" style="fill: rgb(165, 225, 239);"/>
          </g>
          <g>
            <path class="st7" d="M620.57,658.82l33.25,14.55c2.34,1.02,3.41,3.75,2.38,6.09l0,0c-1.02,2.34-3.75,3.41-6.09,2.38 l-33.25-14.55c-2.34-1.02-3.41-3.75-2.38-6.09l0,0C615.51,658.87,618.23,657.8,620.57,658.82z" style="fill: rgb(139, 208, 226);"/>
            <path class="st8" d="M614.49,661.2c0.51-1.17,1.44-2.02,2.55-2.46c1.1-0.42,2.37-0.43,3.54,0.08l33.26,14.55 c2.34,1.02,3.4,3.74,2.38,6.08c-0.03,0.08-0.08,0.18-0.13,0.25c-0.48-0.88-1.23-1.61-2.2-2.03l-33.24-14.54 c-1.17-0.51-2.44-0.49-3.54-0.08c-1.01,0.4-1.9,1.16-2.43,2.2C614,664.06,613.9,662.57,614.49,661.2z" style="fill: rgb(165, 225, 239);"/>
          </g>
          <g>
            <path class="st7" d="M627.34,309.32l33.25,14.55c2.34,1.02,3.41,3.75,2.38,6.09l0,0c-1.02,2.34-3.75,3.41-6.09,2.38 l-33.25-14.55c-2.34-1.02-3.41-3.75-2.38-6.09l0,0C622.27,309.36,625,308.29,627.34,309.32z" style="fill: rgb(139, 208, 226);"/>
            <path class="st8" d="M621.26,311.7c0.51-1.17,1.44-2.02,2.54-2.46c1.1-0.42,2.37-0.43,3.54,0.08l33.26,14.55 c2.34,1.02,3.4,3.74,2.38,6.08c-0.03,0.08-0.08,0.18-0.13,0.25c-0.48-0.88-1.23-1.61-2.2-2.03l-33.24-14.54 c-1.17-0.51-2.44-0.49-3.54-0.08c-1.01,0.4-1.9,1.16-2.43,2.2C620.77,314.56,620.66,313.06,621.26,311.7z" style="fill: rgb(165, 225, 239);"/>
          </g>
          <g>
            <path class="st7" d="M845.77,335.16l33.25,14.55c2.34,1.02,3.41,3.75,2.38,6.09l0,0c-1.02,2.34-3.75,3.41-6.09,2.38 l-33.25-14.55c-2.34-1.02-3.41-3.75-2.38-6.09l0,0C840.7,335.2,843.43,334.14,845.77,335.16z" style="fill: rgb(139, 208, 226);"/>
            <path class="st8" d="M839.69,337.54c0.51-1.17,1.44-2.02,2.55-2.46c1.1-0.42,2.37-0.43,3.54,0.08l33.26,14.55 c2.34,1.02,3.4,3.74,2.38,6.08c-0.04,0.08-0.08,0.18-0.13,0.25c-0.48-0.88-1.23-1.61-2.2-2.03l-33.24-14.54 c-1.17-0.51-2.44-0.49-3.54-0.08c-1.01,0.4-1.9,1.15-2.43,2.2C839.2,340.4,839.09,338.9,839.69,337.54z" style="fill: rgb(165, 225, 239);"/>
          </g>
          <g>
            <path class="st9" d="M846.16,425.05l-10.03,34.88c-0.71,2.45-3.27,3.87-5.72,3.17l0,0c-2.46-0.71-3.87-3.27-3.17-5.72 l10.03-34.88c0.71-2.46,3.27-3.87,5.72-3.17l0,0C845.45,420.03,846.87,422.59,846.16,425.05z" style="fill: rgb(253, 219, 6);"/>
            <path class="st9" d="M842.99,419.33c1.23,0.35,2.2,1.16,2.77,2.2c0.57,1.04,0.76,2.29,0.41,3.52l-10.03,34.89 c-0.71,2.45-3.28,3.86-5.73,3.16c-0.24-0.07-0.45-0.15-0.66-0.24c0.61-0.55,1.1-1.29,1.34-2.14l10.03-34.89 c0.35-1.23,0.17-2.48-0.39-3.52c-0.47-0.84-1.2-1.53-2.11-1.95C839.75,419.31,841.39,418.87,842.99,419.33z" style="fill: rgb(253, 219, 6);"/>
          </g>
          <g>
            <path class="st9" d="M774.4,289.15l-10.03,34.88c-0.71,2.46-3.27,3.87-5.72,3.17v0c-2.46-0.71-3.87-3.27-3.17-5.72l10.03-34.88 c0.71-2.45,3.27-3.87,5.72-3.17l0,0C773.68,284.13,775.1,286.69,774.4,289.15z" style="fill: rgb(253, 219, 6);"/>
            <path class="st9" d="M771.22,283.43c1.23,0.35,2.2,1.16,2.77,2.2c0.58,1.04,0.76,2.29,0.41,3.52l-10.03,34.89 c-0.71,2.45-3.28,3.86-5.73,3.16c-0.23-0.07-0.45-0.15-0.66-0.24c0.61-0.55,1.1-1.29,1.34-2.14l10.03-34.89 c0.35-1.23,0.17-2.48-0.39-3.52c-0.47-0.84-1.2-1.53-2.11-1.95C767.99,283.41,769.62,282.97,771.22,283.43z" style="fill: rgb(253, 219, 6);"/>
          </g>
          <g>
            <path class="st9" d="M591.85,423.35l-10.03,34.88c-0.71,2.46-3.27,3.87-5.72,3.17l0,0c-2.46-0.71-3.87-3.27-3.17-5.72 l10.03-34.88c0.71-2.45,3.27-3.87,5.72-3.17l0,0C591.13,418.34,592.55,420.9,591.85,423.35z" style="fill: rgb(253, 219, 6);"/>
            <path class="st9" d="M588.67,417.63c1.23,0.35,2.2,1.16,2.77,2.2c0.57,1.04,0.76,2.29,0.41,3.52l-10.03,34.89 c-0.71,2.45-3.28,3.86-5.73,3.16c-0.24-0.07-0.45-0.15-0.66-0.24c0.61-0.55,1.1-1.29,1.34-2.14l10.03-34.89 c0.35-1.23,0.17-2.48-0.39-3.52c-0.47-0.84-1.2-1.53-2.11-1.96C585.44,417.62,587.07,417.18,588.67,417.63z" style="fill: rgb(253, 219, 6);"/>
          </g>
          <g>
            <path class="st9" d="M581.75,318.49l-10.03,34.88c-0.71,2.46-3.27,3.87-5.72,3.17l0,0c-2.45-0.71-3.87-3.27-3.17-5.72 l10.03-34.88c0.71-2.45,3.27-3.87,5.72-3.17l0,0C581.04,313.47,582.46,316.04,581.75,318.49z" style="fill: rgb(253, 219, 6);"/>
            <path class="st9" d="M578.58,312.77c1.23,0.35,2.2,1.16,2.77,2.2c0.58,1.04,0.76,2.29,0.41,3.52l-10.03,34.89 c-0.71,2.45-3.28,3.86-5.73,3.16c-0.24-0.07-0.45-0.15-0.66-0.24c0.61-0.55,1.1-1.29,1.34-2.14l10.03-34.89 c0.35-1.23,0.17-2.48-0.39-3.52c-0.47-0.84-1.2-1.53-2.11-1.95C575.34,312.75,576.98,312.31,578.58,312.77z" style="fill: rgb(253, 219, 6);"/>
          </g>
          <g>
            <path class="st9" d="M751.26,653.58l-10.03,34.88c-0.71,2.46-3.27,3.87-5.72,3.17l0,0c-2.46-0.71-3.87-3.27-3.17-5.72 l10.03-34.88c0.71-2.46,3.27-3.87,5.72-3.17l0,0C750.54,648.56,751.96,651.12,751.26,653.58z" style="fill: rgb(253, 219, 6);"/>
            <path class="st9" d="M748.08,647.86c1.23,0.35,2.2,1.16,2.77,2.2c0.58,1.04,0.76,2.29,0.41,3.52l-10.03,34.89 c-0.71,2.45-3.28,3.86-5.73,3.16c-0.24-0.07-0.45-0.15-0.66-0.24c0.61-0.55,1.1-1.29,1.34-2.14l10.03-34.89 c0.35-1.23,0.17-2.48-0.39-3.52c-0.47-0.84-1.2-1.53-2.11-1.95C744.85,647.84,746.48,647.4,748.08,647.86z" style="fill: rgb(253, 219, 6);"/>
          </g>
        </g>
        <g>
          <path class="st10" d="M641.1,685.09c17.26,6.24,29.09,17.26,26.43,24.62c-2.66,7.35-18.8,8.26-36.06,2.02 c-17.26-6.24-29.09-17.26-26.43-24.62C607.7,679.75,623.84,678.85,641.1,685.09z" style="fill: rgba(155, 155, 155, 0.27);"/>
          <path class="st10" d="M686.8,705.61c5.4,1.95,8.2,7.92,6.25,13.32c-1.95,5.4-7.92,8.2-13.32,6.25c-5.4-1.95-8.2-7.92-6.25-13.32 C675.43,706.45,681.4,703.65,686.8,705.61z" style="fill: rgba(155, 155, 155, 0.27);"/>
        </g>
      </g>
      <g>
        <path class="st7" d="M464.44,477.59l26.41,15.8c1.86,1.11,2.47,3.52,1.35,5.38l0,0c-1.11,1.86-3.52,2.47-5.38,1.35l-26.41-15.8 c-1.86-1.11-2.46-3.52-1.35-5.38l0,0C460.17,477.09,462.58,476.48,464.44,477.59z" style="fill: rgb(139, 208, 226);"/>
        <path class="st8" d="M459.07,478.94c0.56-0.93,1.43-1.55,2.4-1.79c0.97-0.23,2.04-0.11,2.97,0.44l26.42,15.8 c1.86,1.11,2.46,3.51,1.35,5.37c-0.04,0.06-0.08,0.14-0.13,0.2c-0.31-0.79-0.86-1.48-1.64-1.95l-26.41-15.79 c-0.93-0.56-2-0.68-2.97-0.44c-0.9,0.23-1.72,0.77-2.28,1.59C458.35,481.3,458.42,480.02,459.07,478.94z" style="fill: rgb(165, 225, 239);"/>
      </g>
      <g>
        <path class="st9" d="M428.77,501.15l-2.08,30.71c-0.15,2.16-2.02,3.79-4.18,3.65l0,0c-2.16-0.15-3.79-2.02-3.65-4.18l2.08-30.71 c0.15-2.16,2.02-3.79,4.18-3.65l0,0C427.28,497.12,428.91,498.99,428.77,501.15z" style="fill: rgb(253, 219, 6);"/>
        <path class="st9" d="M425.11,496.98c1.08,0.07,2.03,0.57,2.69,1.33c0.66,0.76,1.04,1.77,0.97,2.85l-2.09,30.71 c-0.15,2.16-2.03,3.79-4.19,3.64c-0.21-0.01-0.4-0.04-0.59-0.08c0.41-0.57,0.68-1.26,0.73-2.02l2.08-30.71 c0.07-1.08-0.3-2.09-0.95-2.85c-0.54-0.62-1.27-1.05-2.1-1.24C422.43,497.54,423.71,496.88,425.11,496.98z" style="fill: rgb(253, 219, 6);"/>
      </g>
      <g>
        <path class="st9" d="M398.56,449.09l-2.08,30.71c-0.15,2.16-2.02,3.79-4.18,3.65l0,0c-2.16-0.15-3.79-2.02-3.65-4.18l2.08-30.71 c0.15-2.16,2.02-3.79,4.18-3.65l0,0C397.07,445.06,398.71,446.93,398.56,449.09z" style="fill: rgb(253, 219, 6);"/>
        <path class="st9" d="M394.9,444.91c1.08,0.07,2.03,0.57,2.69,1.33c0.66,0.76,1.04,1.77,0.97,2.85l-2.09,30.71 c-0.15,2.16-2.03,3.79-4.19,3.64c-0.21-0.01-0.4-0.04-0.59-0.08c0.41-0.57,0.68-1.26,0.73-2.02l2.09-30.71 c0.07-1.08-0.3-2.09-0.95-2.85c-0.54-0.62-1.27-1.05-2.1-1.24C392.22,445.48,393.5,444.82,394.9,444.91z" style="fill: rgb(253, 219, 6);"/>
      </g>
      <g>
        <path class="st7" d="M376.69,577.69l22.95,4.66c1.62,0.33,2.66,1.9,2.33,3.52l0,0c-0.33,1.62-1.9,2.66-3.52,2.33l-22.95-4.66 c-1.62-0.33-2.66-1.9-2.33-3.52l0,0C373.5,578.41,375.08,577.37,376.69,577.69z" style="fill: rgb(139, 208, 226);"/>
        <path class="st8" d="M373.18,580.02c0.16-0.81,0.63-1.47,1.27-1.9c0.64-0.41,1.43-0.6,2.24-0.43l22.96,4.66 c1.62,0.33,2.66,1.9,2.33,3.51c-0.01,0.06-0.02,0.12-0.05,0.17c-0.42-0.49-0.99-0.85-1.67-0.98l-22.95-4.66 c-0.81-0.16-1.61,0.02-2.24,0.43c-0.59,0.39-1.04,0.99-1.24,1.72C373.26,581.89,372.99,580.96,373.18,580.02z" style="fill: rgb(165, 225, 239);"/>
      </g>
      <g>
        <path class="st7" d="M504.66,531.37l22.95,4.66c1.62,0.33,2.66,1.9,2.33,3.52l0,0c-0.33,1.62-1.9,2.66-3.52,2.33l-22.95-4.66 c-1.62-0.33-2.66-1.9-2.33-3.52l0,0C501.47,532.08,503.04,531.04,504.66,531.37z" style="fill: rgb(139, 208, 226);"/>
        <path class="st8" d="M501.15,533.7c0.16-0.81,0.63-1.47,1.27-1.9c0.64-0.41,1.43-0.6,2.24-0.43l22.96,4.66 c1.62,0.33,2.66,1.9,2.33,3.51c-0.01,0.06-0.02,0.12-0.05,0.17c-0.42-0.49-0.99-0.85-1.67-0.98l-22.95-4.66 c-0.81-0.16-1.61,0.02-2.24,0.43c-0.59,0.39-1.04,0.99-1.24,1.72C501.23,535.57,500.96,534.64,501.15,533.7z" style="fill: rgb(165, 225, 239);"/>
      </g>
      <g>
        <path class="st7" d="M476.96,620.36l-14.7,27.04c-1.03,1.9-3.42,2.61-5.32,1.57l0,0c-1.9-1.04-2.61-3.42-1.57-5.32l14.7-27.04 c1.04-1.9,3.42-2.61,5.32-1.57l0,0C477.29,616.08,477.99,618.46,476.96,620.36z" style="fill: rgb(139, 208, 226);"/>
        <path class="st8" d="M475.39,615.05c0.95,0.52,1.61,1.36,1.89,2.33c0.27,0.96,0.2,2.03-0.32,2.98l-14.71,27.04 c-1.03,1.9-3.41,2.6-5.31,1.57c-0.06-0.04-0.14-0.08-0.2-0.13c0.78-0.34,1.45-0.92,1.88-1.71l14.7-27.03 c0.52-0.95,0.59-2.02,0.32-2.98c-0.26-0.89-0.84-1.69-1.68-2.22C473.01,614.43,474.28,614.45,475.39,615.05z" style="fill: rgb(165, 225, 239);"/>
      </g>
      <g>
        <path class="st7" d="M466.51,422.62l-14.7,27.04c-1.03,1.9-3.42,2.61-5.32,1.57l0,0c-1.9-1.04-2.61-3.42-1.57-5.32l14.7-27.04 c1.04-1.9,3.42-2.61,5.32-1.57l0,0C466.84,418.34,467.55,420.72,466.51,422.62z" style="fill: rgb(139, 208, 226);"/>
        <path class="st8" d="M464.94,417.31c0.95,0.52,1.61,1.36,1.89,2.33c0.27,0.96,0.2,2.03-0.32,2.98l-14.71,27.04 c-1.03,1.9-3.41,2.6-5.31,1.57c-0.06-0.04-0.14-0.08-0.2-0.13c0.78-0.34,1.45-0.92,1.88-1.71l14.7-27.03 c0.52-0.95,0.59-2.02,0.32-2.98c-0.26-0.89-0.84-1.69-1.68-2.22C462.56,416.69,463.83,416.71,464.94,417.31z" style="fill: rgb(165, 225, 239);"/>
      </g>
      <g>
        <path class="st9" d="M470.63,556.21l-21.25,22.27c-1.5,1.57-3.98,1.63-5.55,0.13l0,0c-1.57-1.5-1.63-3.98-0.13-5.55l21.25-22.27 c1.49-1.57,3.98-1.63,5.55-0.13l0,0C472.07,552.16,472.12,554.64,470.63,556.21z" style="fill: rgb(253, 219, 6);"/>
        <path class="st9" d="M470.49,550.66c0.78,0.75,1.19,1.74,1.22,2.74c0.02,1.01-0.33,2.02-1.08,2.81l-21.25,22.27 c-1.49,1.57-3.98,1.62-5.55,0.12c-0.15-0.14-0.28-0.29-0.4-0.44c0.68-0.17,1.33-0.53,1.85-1.08l21.25-22.27 c0.75-0.78,1.1-1.8,1.09-2.8c-0.02-0.82-0.3-1.62-0.82-2.3C468.07,549.37,469.47,549.69,470.49,550.66z" style="fill: rgb(253, 219, 6);"/>
      </g>
      <g>
        <path class="st9" d="M537.99,597.95l-28.74-11c-2.02-0.77-3.04-3.04-2.26-5.07l0,0c0.77-2.02,3.04-3.04,5.07-2.26l28.75,11 c2.02,0.77,3.04,3.04,2.26,5.07l0,0C542.28,597.71,540.02,598.72,537.99,597.95z" style="fill: rgb(253, 219, 6);"/>
        <path class="st9" d="M543.05,595.68c-0.39,1.01-1.14,1.77-2.06,2.18c-0.92,0.41-1.99,0.48-3,0.09l-28.75-11 c-2.02-0.77-3.03-3.05-2.25-5.07c0.07-0.19,0.16-0.37,0.25-0.54c0.42,0.56,1.01,1.02,1.71,1.29l28.75,11 c1.01,0.39,2.08,0.32,3-0.08c0.75-0.33,1.38-0.9,1.8-1.64C543.31,592.94,543.56,594.36,543.05,595.68z" style="fill: rgb(253, 219, 6);"/>
      </g>
    </g>
  </g>
  <g id="Livello_1" transform="matrix(1, 0, 0, 1, -162.522964, -164.219986)">
    <g>
      <g>
        <g>
          <path class="st0" d="M52.53,355.23c2.33-6.36,6.47-11.73,11.77-15.51c-8.29-40.55-7.12-83.64,5.22-126.14 C100.23,107.9,191.23,36.09,294.22,24.77c33.4-3.69,68.1-1,102.4,8.96C536.58,74.39,617.11,220.85,576.45,360.8 c-7.72,26.6-19.29,51.07-33.87,72.94c-51.82,77.73-142.13,123.03-236.37,116.91c-0.03,1.17-0.13,2.35-0.28,3.55 c17.7,0.78,35.26-0.17,52.45-2.71c4.8-0.72,9.56-1.56,14.29-2.51c3.16-0.65,6.28-1.34,9.42-2.08c3.11-0.76,6.23-1.55,9.31-2.4 c6.19-1.73,12.29-3.64,18.31-5.76c1.51-0.53,3.03-1.08,4.52-1.63c2.99-1.13,5.96-2.28,8.92-3.5 c9.48-3.92,18.72-8.34,27.71-13.29c2.19-1.17,4.37-2.42,6.55-3.68c3.37-1.99,6.73-4.02,10.03-6.18 c1.46-0.91,2.87-1.84,4.29-2.78c4.59-3.08,9.11-6.3,13.52-9.65c16.54-12.54,31.71-26.99,45.16-43.14c0,0,0.02,0,0.02-0.02 c6.22-7.45,12.06-15.26,17.49-23.4c0.33-0.49,0.63-1.01,0.96-1.5c1.57-2.38,3.1-4.78,4.61-7.21 c12.64-20.64,22.8-43.31,29.89-67.68c26.82-92.33,3.3-187.34-54.44-255.66c-3.9-4.64-7.98-9.15-12.2-13.53 c-2.81-2.92-5.71-5.76-8.65-8.57c-2.96-2.81-5.98-5.54-9.04-8.21c-3.09-2.67-6.23-5.29-9.45-7.83 c-1.59-1.27-3.22-2.52-4.85-3.77c-4.9-3.71-9.96-7.27-15.12-10.67c-1.74-1.14-3.47-2.25-5.24-3.35 c-3.51-2.19-7.09-4.3-10.72-6.35c-18.15-10.2-37.76-18.52-58.63-24.57c-21.59-6.28-43.36-9.78-64.87-10.77 c-2.86-0.12-5.72-0.21-8.54-0.26c-4.26-0.05-8.51-0.01-12.76,0.13c-7.07,0.23-14.08,0.73-21.05,1.5 c-65.75,7.23-126.8,37.98-171.74,85.94c-3.45,3.68-6.82,7.47-10.08,11.37c-1.07,1.29-2.15,2.6-3.22,3.9 c-5.32,6.59-10.35,13.47-15.09,20.58c-0.94,1.44-1.88,2.87-2.8,4.31c-1.84,2.9-3.62,5.83-5.37,8.79c0,0.02-0.02,0.02-0.02,0.02 c-1.72,2.98-3.4,5.97-5.05,9.03c-4.09,7.62-7.85,15.5-11.25,23.6c-1.92,4.57-3.73,9.23-5.41,13.96 c-1.9,5.31-3.65,10.7-5.25,16.19C37.3,253.26,38.28,306.49,52.53,355.23z" style="opacity: 0.05;"/>
          <path class="st11" d="M69.54,363.17c2.25-6.14,6.25-11.33,11.37-14.99c0.59-0.44,1.21-0.86,1.83-1.24 c6.15-3.85,13.64-5.62,21.36-4.55c1.26,0.18,2.51,0.43,3.7,0.75c13.19,3.44,22.64,14.9,23.77,28.27 c3.84-0.96,7.91-1.23,12.08-0.65c4.42,0.62,8.5,2.11,12.11,4.28c7.99,4.84,13.58,13.03,15.09,22.35 c7.32-3.44,15.68-4.88,24.28-3.67c8.62,1.21,16.29,4.89,22.41,10.22c5.26-1.33,10.86-1.72,16.58-0.92 c15.54,2.17,27.98,12.35,33.76,25.78c3.02,7.01,4.21,14.91,3.07,23.02c-0.96,6.87-3.53,13.1-7.2,18.43 c4.84,1.96,9.03,5.05,12.3,8.89c5.75,6.69,8.7,15.75,7.37,25.2c-0.2,1.46-0.53,2.87-0.93,4.27c11.6,3.07,21.07,10.73,26.64,20.7 c0.89,1.58,1.7,3.22,2.36,4.92c0.88,2.14,1.56,4.34,2.08,6.62c0.8,3.58,1.17,7.29,1.01,11.1c-0.03,1.13-0.13,2.28-0.27,3.43 c17.1,0.75,34.06-0.16,50.66-2.62c4.64-0.7,9.24-1.51,13.8-2.43c3.05-0.63,6.07-1.3,9.1-2.01c3-0.72,6.01-1.49,8.99-2.32 c5.97-1.65,11.87-3.52,17.69-5.56c1.46-0.51,2.92-1.04,4.36-1.58c2.88-1.07,5.76-2.2,8.61-3.38 c9.15-3.79,18.08-8.05,26.76-12.84c2.12-1.13,4.24-2.33,6.32-3.55c3.26-1.92,6.5-3.89,9.69-5.97c1.39-0.88,2.77-1.78,4.14-2.68 c4.43-2.98,8.8-6.09,13.06-9.32c15.98-12.13,30.64-26.09,43.63-41.68c0,0,0.02,0,0.02-0.02c5.99-7.2,11.63-14.74,16.88-22.61 c1.86-2.77,3.64-5.57,5.41-8.42c12.21-19.94,22.02-41.83,28.87-65.39c25.91-89.19,3.19-180.98-52.59-246.98 c-3.77-4.48-7.71-8.84-11.78-13.07c-2.72-2.82-5.51-5.59-8.35-8.28c-2.86-2.71-5.77-5.35-8.74-7.93 c-2.98-2.6-6.02-5.11-9.12-7.57c-1.53-1.22-3.11-2.43-4.69-3.64c-4.74-3.59-9.62-7.02-14.61-10.31 c-1.68-1.1-3.36-2.17-5.06-3.23c-3.39-2.11-6.84-4.17-10.35-6.14c-17.53-9.88-36.48-17.89-56.63-23.76 c-20.86-6.05-41.89-9.45-62.67-10.38c-2.76-0.11-5.53-0.2-8.25-0.25c-4.12-0.05-8.24-0.02-12.32,0.13 c-6.83,0.22-13.6,0.71-20.33,1.45c-63.52,6.98-122.49,36.69-165.91,83.02c-3.34,3.55-6.58,7.22-9.74,10.99 c-1.04,1.24-2.08,2.51-3.11,3.77c-5.14,6.37-10.02,13.01-14.58,19.88c-0.91,1.39-1.82,2.78-2.71,4.17 c-1.78,2.78-3.52,5.61-5.18,8.49c0,0.02-0.02,0.02-0.02,0.02c-1.68,2.86-3.31,5.76-4.88,8.72c-3.95,7.36-7.58,14.97-10.87,22.8 c-1.86,4.41-3.6,8.92-5.23,13.49c-1.83,5.13-3.53,10.34-5.07,15.64C54.83,264.66,55.78,316.08,69.54,363.17z M254.49,348.46 c-0.49-0.59-0.97-1.17-1.43-1.78c-0.24-0.26-0.45-0.57-0.7-0.86c-0.44-0.59-0.88-1.2-1.33-1.78c-1.14-1.48-2.21-3.02-3.2-4.63 c-0.53-0.75-1.02-1.55-1.5-2.36c-0.48-0.8-0.96-1.59-1.41-2.41c-0.36-0.62-0.71-1.21-1.01-1.82l-0.45-0.82 c-0.42-0.77-0.79-1.54-1.15-2.33c-0.45-0.82-0.86-1.68-1.23-2.51c-0.38-0.87-0.75-1.7-1.13-2.6c-0.73-1.72-1.41-3.46-2-5.22 c-0.4-1.09-0.74-2.21-1.09-3.31c-0.49-1.58-0.94-3.18-1.33-4.77c-0.26-1.02-0.51-2.09-0.74-3.11c-0.16-0.8-0.34-1.6-0.48-2.42 c-0.14-0.78-0.29-1.55-0.41-2.33c-0.49-3.1-0.85-6.26-1.05-9.47c-0.08-1.38-0.12-2.75-0.12-4.14c-0.01-0.36-0.02-0.74-0.01-1.12 c-0.04-0.95-0.01-1.92,0.02-2.88c0.04-1.07,0.07-2.18,0.16-3.26c0.2-2.79,0.5-5.57,0.94-8.37c0.29-1.92,0.67-3.88,1.11-5.82 c0.21-0.88,0.42-1.77,0.64-2.62c0.25-1.06,0.53-2.13,0.84-3.18c13.39-46.13,59.31-73.98,105.59-65.83 c2.14,0.36,4.28,0.83,6.39,1.36c1.16,0.29,2.36,0.6,3.55,0.96c1.05,0.29,2.1,0.63,3.12,0.98c1.41,0.43,2.79,0.94,4.15,1.44 c0.8,0.32,1.62,0.63,2.41,0.97c1.09,0.45,2.16,0.93,3.23,1.42c0.54,0.22,1.09,0.49,1.62,0.75c1.72,0.81,3.36,1.67,5,2.59 c0.78,0.42,1.56,0.89,2.32,1.33c0.49,0.28,0.95,0.57,1.4,0.85c0.64,0.4,1.25,0.81,1.87,1.21c1.06,0.67,2.12,1.39,3.13,2.14 c0.71,0.5,1.41,1.02,2.11,1.58c0.35,0.24,0.73,0.52,1.07,0.8c1.71,1.33,3.36,2.72,4.97,4.17c0.77,0.7,1.55,1.44,2.29,2.15 c0.78,0.76,1.57,1.55,2.35,2.33c0.02,0.02,0.04,0.05,0.05,0.07c0.77,0.82,1.54,1.62,2.29,2.47c0.77,0.82,1.49,1.7,2.21,2.56 c0.72,0.86,1.42,1.71,2.09,2.63c1.41,1.82,2.77,3.69,4.02,5.59c0.57,0.9,1.16,1.78,1.71,2.68c0.94,1.52,1.84,3.1,2.67,4.64 c0.75,1.39,1.46,2.79,2.13,4.19c0.47,1.01,0.92,2.02,1.38,3.07c0.07,0.11,0.11,0.25,0.18,0.4c0.4,0.9,0.76,1.79,1.1,2.68 c0.71,1.82,1.36,3.68,1.96,5.55c0.89,2.82,1.67,5.68,2.3,8.55c0.63,2.89,1.12,5.82,1.47,8.77c1.16,9.73,0.79,19.8-1.29,29.84 c-0.5,2.39-1.08,4.75-1.77,7.12c-11.77,40.53-48.64,66.98-88.78,67.28c-1.01,0.01-2-0.01-3.01-0.02 c-7.86-0.19-15.84-1.39-23.76-3.7c-4.71-1.37-9.23-3.08-13.53-5.09C273.82,367.15,263.03,358.68,254.49,348.46z" style="fill: rgb(199, 1, 173);"/>
          <path class="st12" d="M69.54,363.17c2.25-6.14,6.25-11.33,11.37-14.99c-8.01-39.17-6.88-80.8,5.04-121.86 c29.67-102.09,117.58-171.47,217.08-182.4c32.26-3.57,65.79-0.97,98.93,8.65c135.2,39.28,212.99,180.77,173.71,315.97 c-7.46,25.69-18.63,49.33-32.72,70.47c-50.07,75.09-137.3,118.85-228.34,112.94c-0.03,1.13-0.13,2.28-0.27,3.43 c17.1,0.75,34.06-0.16,50.66-2.62c4.64-0.7,9.24-1.51,13.8-2.43c3.05-0.63,6.07-1.3,9.1-2.01c3.01-0.74,6.01-1.49,8.99-2.32 c5.98-1.67,11.87-3.52,17.69-5.56c1.46-0.51,2.92-1.04,4.36-1.58c2.89-1.09,5.76-2.2,8.61-3.38 c9.15-3.79,18.08-8.05,26.76-12.84c2.12-1.13,4.22-2.33,6.32-3.55c3.26-1.92,6.5-3.89,9.69-5.97c1.41-0.88,2.77-1.78,4.14-2.68 c4.43-2.98,8.8-6.09,13.06-9.32c15.98-12.11,30.63-26.07,43.63-41.68c0,0,0.02,0,0.02-0.02c6.01-7.2,11.65-14.74,16.9-22.61 c0.32-0.48,0.61-0.97,0.93-1.45c1.52-2.3,3-4.62,4.46-6.97c12.21-19.94,22.02-41.83,28.87-65.39 c25.91-89.19,3.19-180.98-52.59-246.98c-3.77-4.48-7.71-8.84-11.78-13.07c-2.72-2.82-5.51-5.57-8.35-8.28 c-2.86-2.71-5.77-5.35-8.74-7.93c-2.98-2.58-6.02-5.11-9.12-7.57c-1.53-1.22-3.11-2.43-4.69-3.64 c-4.74-3.59-9.62-7.02-14.61-10.31c-1.68-1.1-3.36-2.17-5.06-3.23c-3.39-2.11-6.85-4.15-10.35-6.14 c-17.53-9.86-36.48-17.89-56.64-23.74c-20.86-6.07-41.89-9.45-62.67-10.4c-2.76-0.11-5.53-0.2-8.25-0.25 c-4.12-0.05-8.22-0.01-12.32,0.13c-6.83,0.22-13.6,0.71-20.33,1.45c-63.52,6.98-122.49,36.69-165.91,83.02 c-3.34,3.55-6.58,7.22-9.74,10.99c-1.04,1.24-2.08,2.51-3.11,3.77c-5.14,6.37-10,13.01-14.58,19.88 c-0.91,1.39-1.82,2.78-2.71,4.17c-1.78,2.8-3.5,5.63-5.18,8.49c0,0.02-0.02,0.02-0.02,0.02c-1.66,2.88-3.29,5.77-4.88,8.72 c-3.95,7.36-7.58,14.97-10.87,22.8c-1.86,4.41-3.6,8.92-5.23,13.49c-1.83,5.13-3.53,10.34-5.07,15.64 C54.83,264.66,55.78,316.08,69.54,363.17z" style="fill: rgb(169, 4, 147);"/>
          <path class="st13" d="M82.75,346.94c6.15-3.85,13.64-5.62,21.36-4.55c1.26,0.18,2.51,0.43,3.7,0.75 c13.19,3.44,22.64,14.9,23.77,28.27c3.84-0.96,7.91-1.23,12.08-0.65c4.42,0.62,8.5,2.11,12.11,4.28 c7.99,4.84,13.58,13.03,15.09,22.35c7.32-3.44,15.68-4.88,24.28-3.67c8.62,1.21,16.29,4.89,22.41,10.22 c5.26-1.33,10.86-1.72,16.58-0.92c15.54,2.17,27.98,12.35,33.76,25.78c3.02,7.01,4.21,14.91,3.07,23.02 c-0.96,6.87-3.53,13.1-7.2,18.43c4.84,1.96,9.03,5.05,12.3,8.89c5.75,6.69,8.7,15.75,7.37,25.2c-0.2,1.46-0.53,2.87-0.93,4.27 c11.6,3.07,21.07,10.73,26.64,20.7c0.89,1.58,1.7,3.22,2.36,4.92c0.88,2.14,1.56,4.34,2.08,6.62 c86.41,3.79,168.65-38.38,216.28-109.77c13.66-20.5,24.49-43.4,31.72-68.33c38.07-131.08-37.34-268.24-168.44-306.32 c-32.12-9.35-64.61-11.85-95.91-8.4c-96.44,10.63-181.68,77.85-210.43,176.83C74.87,266.05,74.1,307.82,82.75,346.94z M249.2,336.48c-0.32-0.57-0.62-1.12-0.92-1.69l-0.42-0.75c-0.38-0.73-0.75-1.43-1.07-2.15c-0.42-0.77-0.79-1.56-1.12-2.34 c-0.37-0.81-0.71-1.57-1.05-2.4c-0.68-1.59-1.3-3.21-1.85-4.82c-0.36-1.02-0.7-2.05-1.02-3.09c-0.47-1.45-0.88-2.92-1.24-4.4 c-0.24-0.96-0.47-1.94-0.69-2.89c-0.15-0.74-0.3-1.47-0.44-2.25c-0.13-0.71-0.26-1.43-0.37-2.14c-0.46-2.88-0.79-5.79-0.98-8.76 c-0.03-1.27-0.09-2.54-0.11-3.84c0-0.32-0.01-0.67-0.01-1.01c0-0.88,0-1.79,0.04-2.69c0.03-0.98,0.07-2.01,0.15-3.01 c0.17-2.58,0.45-5.15,0.85-7.75c0.29-1.77,0.63-3.59,1.03-5.39c0.2-0.79,0.37-1.63,0.59-2.44c0.24-0.98,0.51-1.97,0.79-2.94 c12.98-44.68,58.89-70.82,103.66-59.69c1.1,0.26,2.19,0.56,3.28,0.88c0.99,0.29,1.96,0.59,2.92,0.91 c1.29,0.41,2.55,0.86,3.83,1.36c0.74,0.27,1.5,0.57,2.23,0.88c1.02,0.42,2.01,0.85,2.99,1.3c0.5,0.22,1.01,0.46,1.5,0.71 c1.58,0.75,3.11,1.55,4.61,2.39c0.72,0.4,1.44,0.81,2.16,1.25c0.45,0.25,0.87,0.52,1.3,0.79c0.58,0.35,1.16,0.73,1.72,1.1 c0.98,0.64,1.97,1.28,2.9,1.98c0.65,0.47,1.32,0.94,1.96,1.45c0.32,0.23,0.67,0.49,0.99,0.75c1.57,1.23,3.12,2.52,4.59,3.86 c0.71,0.65,1.44,1.32,2.12,2c0.74,0.69,1.46,1.42,2.18,2.14c0.02,0.02,0.03,0.07,0.05,0.07c0.72,0.75,1.43,1.5,2.1,2.29 c0.72,0.75,1.38,1.56,2.05,2.37c0.67,0.79,1.33,1.6,1.96,2.42c1.3,1.7,2.55,3.43,3.71,5.19c0.54,0.83,1.05,1.64,1.57,2.47 c0.88,1.41,1.7,2.87,2.47,4.3c0.7,1.3,1.36,2.59,1.98,3.87c0.42,0.94,0.85,1.89,1.26,2.85c0.07,0.11,0.11,0.25,0.18,0.38 c0.35,0.81,0.7,1.63,1,2.47c0.69,1.7,1.27,3.4,1.83,5.14c0.82,2.6,1.54,5.26,2.13,7.93c0.14,0.65,0.28,1.32,0.42,1.99 c0.25,1.34,0.49,2.7,0.67,4.07c0.1,0.67,0.19,1.35,0.26,2.04c1.08,9.01,0.74,18.34-1.19,27.62c-0.46,2.21-1.01,4.4-1.64,6.61 c-10.9,37.5-45.04,61.99-82.18,62.27c-8.17,0.08-16.52-1.05-24.78-3.44c-4.37-1.26-8.54-2.86-12.53-4.72 c-11.63-5.43-21.62-13.27-29.54-22.72c-0.45-0.55-0.9-1.07-1.33-1.66c-0.22-0.24-0.41-0.5-0.65-0.78 c-0.43-0.54-0.81-1.1-1.24-1.65c-1.05-1.37-2.03-2.81-2.96-4.28c-0.49-0.7-0.96-1.44-1.4-2.19 C250.09,337.98,249.64,337.24,249.2,336.48z" style="fill: rgb(243, 66, 115);"/>
          <path class="st14" d="M82.75,346.94c6.15-3.85,13.64-5.62,21.36-4.55c1.26,0.18,2.51,0.43,3.7,0.75 c-4.79-31.38-2.97-64.26,6.45-96.73C141.02,154.33,221.31,92.33,311.46,84.5c26.98-2.35,54.87,0.14,82.46,8.16 c119.66,34.75,188.51,159.97,153.76,279.63c-5.93,20.44-14.51,39.37-25.24,56.57c-8.32,13.35-17.95,25.66-28.66,36.8 c-32.84,34.16-75.85,57.28-122.56,65.8c-19.41,3.54-39.45,4.54-59.69,2.76c0.88,2.14,1.56,4.34,2.08,6.62 c86.41,3.79,168.65-38.38,216.28-109.77c13.66-20.5,24.49-43.4,31.72-68.33c38.07-131.08-37.34-268.24-168.44-306.32 c-32.12-9.35-64.61-11.85-95.91-8.4c-96.44,10.63-181.68,77.85-210.43,176.83C74.87,266.05,74.1,307.82,82.75,346.94z" style="fill: rgb(225, 5, 141);"/>
          <g>
            <path class="st9" d="M472.87,187.28l30.26,16.4c2.13,1.15,2.92,3.82,1.77,5.95l0,0c-1.15,2.13-3.82,2.92-5.95,1.77L468.69,195 c-2.13-1.15-2.92-3.82-1.77-5.95l0,0C468.08,186.92,470.74,186.13,472.87,187.28z" style="fill: rgb(253, 219, 6);"/>
            <path class="st16" d="M466.93,189.05c0.58-1.06,1.52-1.8,2.6-2.12c1.07-0.31,2.27-0.22,3.34,0.36l30.26,16.41 c2.13,1.15,2.92,3.81,1.76,5.94c-0.04,0.07-0.09,0.16-0.14,0.23c-0.38-0.87-1.03-1.62-1.92-2.1l-30.25-16.4 c-1.06-0.58-2.26-0.66-3.34-0.36c-0.99,0.29-1.89,0.94-2.47,1.89C466.24,191.71,466.26,190.29,466.93,189.05z" style="fill: rgb(249, 143, 181);"/>
          </g>
          <g>
            <path class="st9" d="M280.31,443.41l30.26,16.4c2.13,1.15,2.92,3.82,1.77,5.95l0,0c-1.15,2.13-3.82,2.92-5.95,1.77l-30.26-16.4 c-2.13-1.15-2.92-3.82-1.77-5.95l0,0C275.52,443.04,278.18,442.25,280.31,443.41z" style="fill: rgb(253, 219, 6);"/>
            <path class="st16" d="M274.38,445.17c0.58-1.06,1.52-1.8,2.6-2.12c1.07-0.31,2.27-0.22,3.34,0.36l30.26,16.41 c2.13,1.15,2.92,3.81,1.76,5.94c-0.04,0.07-0.09,0.16-0.14,0.23c-0.38-0.87-1.03-1.62-1.92-2.1l-30.25-16.4 c-1.06-0.58-2.26-0.66-3.34-0.36c-0.99,0.29-1.89,0.94-2.48,1.89C273.69,447.83,273.7,446.41,274.38,445.17z" style="fill: rgb(249, 143, 181);"/>
          </g>
          <g>
            <path class="st9" d="M465.52,323.7l31.83-13.08c2.24-0.92,4.8,0.15,5.72,2.39l0,0c0.92,2.24-0.15,4.8-2.39,5.72l-31.83,13.08 c-2.24,0.92-4.8-0.15-5.72-2.39l0,0C462.21,327.18,463.28,324.62,465.52,323.7z" style="fill: rgb(253, 219, 6);"/>
            <path class="st16" d="M463.14,329.42c-0.46-1.12-0.43-2.32,0-3.36c0.44-1.02,1.26-1.9,2.38-2.36l31.84-13.08 c2.24-0.92,4.8,0.15,5.72,2.39c0.03,0.08,0.07,0.17,0.09,0.25c-0.91-0.25-1.9-0.22-2.84,0.16l-31.83,13.08 c-1.12,0.46-1.94,1.34-2.38,2.36c-0.4,0.95-0.47,2.06-0.1,3.11C464.77,331.63,463.67,330.72,463.14,329.42z" style="fill: rgb(249, 143, 181);"/>
          </g>
          <g>
            <path class="st9" d="M377.64,483.06l31.83-13.08c2.24-0.92,4.8,0.15,5.72,2.39l0,0c0.92,2.24-0.15,4.8-2.39,5.72l-31.83,13.08 c-2.24,0.92-4.8-0.15-5.72-2.39l0,0C374.33,486.54,375.4,483.98,377.64,483.06z" style="fill: rgb(253, 219, 6);"/>
            <path class="st16" d="M375.26,488.77c-0.46-1.12-0.43-2.32,0-3.35c0.44-1.02,1.26-1.9,2.38-2.36l31.84-13.08 c2.24-0.92,4.79,0.15,5.72,2.39c0.03,0.08,0.07,0.17,0.09,0.25c-0.91-0.25-1.9-0.22-2.84,0.16l-31.83,13.08 c-1.12,0.46-1.94,1.34-2.38,2.36c-0.4,0.95-0.46,2.06-0.1,3.11C376.89,490.99,375.79,490.07,375.26,488.77z" style="fill: rgb(249, 143, 181);"/>
          </g>
          <g>
            <path class="st9" d="M143.83,248.07l31.83-13.08c2.24-0.92,4.8,0.15,5.72,2.39l0,0c0.92,2.24-0.15,4.8-2.39,5.72l-31.83,13.08 c-2.24,0.92-4.8-0.15-5.72-2.39l0,0C140.51,251.56,141.58,248.99,143.83,248.07z" style="fill: rgb(253, 219, 6);"/>
            <path class="st16" d="M141.44,253.79c-0.46-1.12-0.43-2.32,0-3.35c0.44-1.02,1.26-1.9,2.38-2.36l31.84-13.08 c2.24-0.92,4.79,0.15,5.72,2.39c0.03,0.08,0.07,0.17,0.09,0.25c-0.91-0.25-1.9-0.22-2.84,0.16l-31.83,13.08 c-1.12,0.46-1.94,1.34-2.38,2.36c-0.4,0.95-0.46,2.06-0.1,3.11C143.07,256.01,141.97,255.09,141.44,253.79z" style="fill: rgb(249, 143, 181);"/>
          </g>
          <g>
            <path class="st9" d="M305.42,116.19l31.83-13.08c2.24-0.92,4.8,0.15,5.72,2.39l0,0c0.92,2.24-0.15,4.8-2.39,5.72l-31.83,13.08 c-2.24,0.92-4.8-0.15-5.72-2.39l0,0C302.11,119.68,303.18,117.11,305.42,116.19z" style="fill: rgb(253, 219, 6);"/>
            <path class="st16" d="M303.03,121.91c-0.46-1.12-0.43-2.32,0-3.36c0.44-1.02,1.26-1.9,2.38-2.36l31.84-13.08 c2.24-0.92,4.8,0.15,5.72,2.39c0.03,0.08,0.07,0.17,0.09,0.25c-0.91-0.25-1.9-0.22-2.84,0.16l-31.83,13.08 c-1.12,0.46-1.94,1.34-2.38,2.36c-0.4,0.95-0.47,2.06-0.1,3.11C304.66,124.13,303.57,123.21,303.03,121.91z" style="fill: rgb(249, 143, 181);"/>
          </g>
          <g>
            <path class="st9" d="M366.96,175.17L384.13,205c1.21,2.1,0.49,4.78-1.61,5.99l0,0c-2.1,1.21-4.78,0.49-5.99-1.61l-17.17-29.83 c-1.21-2.1-0.49-4.78,1.61-5.99l0,0C363.07,172.35,365.75,173.07,366.96,175.17z" style="fill: rgb(253, 219, 6);"/>
            <path class="st9" d="M360.97,173.57c1.05-0.6,2.24-0.73,3.33-0.44c1.09,0.29,2.06,0.99,2.67,2.04L384.14,205 c1.21,2.1,0.47,4.78-1.62,5.99c-0.2,0.12-0.4,0.21-0.6,0.29c0.03-0.78-0.15-1.6-0.58-2.33l-17.18-29.83 c-0.6-1.05-1.58-1.75-2.66-2.05c-0.88-0.24-1.83-0.19-2.73,0.15C358.82,175.76,359.6,174.35,360.97,173.57z" style="fill: rgb(253, 219, 6);"/>
          </g>
          <g>
            <path class="st9" d="M227,134.52l17.17,29.83c1.21,2.1,0.49,4.78-1.61,5.99l0,0c-2.1,1.21-4.78,0.49-5.99-1.61L219.4,138.9 c-1.21-2.1-0.49-4.78,1.61-5.99l0,0C223.11,131.7,225.79,132.42,227,134.52z" style="fill: rgb(253, 219, 6);"/>
            <path class="st9" d="M221.01,132.92c1.05-0.6,2.24-0.73,3.33-0.44c1.09,0.29,2.07,0.99,2.67,2.04l17.17,29.83 c1.21,2.1,0.47,4.78-1.62,5.99c-0.2,0.12-0.4,0.21-0.6,0.29c0.03-0.78-0.15-1.6-0.58-2.33l-17.18-29.83 c-0.6-1.05-1.58-1.75-2.65-2.05c-0.88-0.24-1.83-0.19-2.73,0.15C218.86,135.11,219.64,133.7,221.01,132.92z" style="fill: rgb(253, 219, 6);"/>
          </g>
          <g>
            <path class="st9" d="M198.17,347.44l17.17,29.83c1.21,2.1,0.49,4.78-1.61,5.99l0,0c-2.1,1.21-4.78,0.49-5.99-1.61l-17.17-29.83 c-1.21-2.1-0.49-4.78,1.61-5.99l0,0C194.28,344.62,196.97,345.34,198.17,347.44z" style="fill: rgb(253, 219, 6);"/>
            <path class="st9" d="M192.18,345.83c1.05-0.6,2.24-0.73,3.33-0.44c1.09,0.29,2.07,0.99,2.67,2.04l17.18,29.83 c1.21,2.1,0.47,4.78-1.62,5.99c-0.2,0.12-0.4,0.21-0.6,0.29c0.03-0.78-0.15-1.6-0.58-2.33l-17.17-29.83 c-0.6-1.05-1.58-1.75-2.65-2.05c-0.88-0.24-1.83-0.19-2.73,0.15C190.04,348.02,190.82,346.62,192.18,345.83z" style="fill: rgb(253, 219, 6);"/>
          </g>
          <g>
            <path class="st9" d="M120.03,285.2l17.17,29.83c1.21,2.1,0.49,4.78-1.61,5.99l0,0c-2.1,1.21-4.78,0.49-5.99-1.61l-17.17-29.83 c-1.21-2.1-0.49-4.78,1.61-5.99l0,0C116.14,282.38,118.82,283.1,120.03,285.2z" style="fill: rgb(253, 219, 6);"/>
            <path class="st9" d="M114.04,283.59c1.05-0.6,2.24-0.73,3.33-0.44c1.09,0.29,2.07,0.99,2.67,2.04l17.18,29.83 c1.21,2.1,0.47,4.78-1.62,5.99c-0.2,0.12-0.4,0.21-0.6,0.29c0.03-0.78-0.15-1.6-0.57-2.33l-17.18-29.83 c-0.6-1.05-1.58-1.75-2.65-2.05c-0.88-0.24-1.83-0.19-2.73,0.15C111.89,285.79,112.67,284.38,114.04,283.59z" style="fill: rgb(253, 219, 6);"/>
          </g>
          <g>
            <path class="st9" d="M460.2,390.5l17.17,29.83c1.21,2.1,0.49,4.78-1.61,5.99l0,0c-2.1,1.21-4.78,0.49-5.99-1.61l-17.17-29.83 c-1.21-2.1-0.49-4.78,1.61-5.99l0,0C456.31,387.68,458.99,388.4,460.2,390.5z" style="fill: rgb(253, 219, 6);"/>
            <path class="st9" d="M454.21,388.9c1.05-0.6,2.24-0.73,3.33-0.44c1.09,0.29,2.07,0.99,2.67,2.04l17.18,29.83 c1.21,2.1,0.47,4.78-1.62,5.99c-0.2,0.12-0.4,0.21-0.6,0.29c0.03-0.78-0.15-1.6-0.58-2.33l-17.18-29.83 c-0.6-1.05-1.58-1.75-2.66-2.05c-0.88-0.24-1.83-0.19-2.73,0.15C452.06,391.09,452.84,389.68,454.21,388.9z" style="fill: rgb(253, 219, 6);"/>
          </g>
        </g>
        <g>
          <path class="st10" d="M409.08,486.37c15.63-7.65,30.94-8.45,34.2-1.79c3.26,6.66-6.76,18.26-22.39,25.91 c-15.63,7.65-30.94,8.45-34.2,1.79C383.43,505.63,393.45,494.02,409.08,486.37z" style="fill: rgba(155, 155, 155, 0.25);"/>
          <path class="st10" d="M453.19,468.74c4.89-2.4,10.81-0.37,13.2,4.52c2.4,4.89,0.37,10.81-4.52,13.2 c-4.89,2.4-10.81,0.37-13.2-4.52C446.27,477.05,448.3,471.14,453.19,468.74z" style="fill: rgba(155, 155, 155, 0.25);"/>
        </g>
      </g>
      <g>
        <path class="st9" d="M134.29,430.98l29.15-1.49c2.05-0.11,3.8,1.47,3.91,3.52l0,0c0.1,2.05-1.47,3.8-3.53,3.91l-29.15,1.49 c-2.05,0.1-3.8-1.47-3.91-3.53l0,0C130.66,432.83,132.23,431.08,134.29,430.98z" style="fill: rgb(253, 219, 6);"/>
        <path class="st16" d="M130.77,434.88c-0.05-1.03,0.31-1.97,0.95-2.68c0.64-0.7,1.55-1.16,2.57-1.22l29.15-1.49 c2.05-0.11,3.79,1.47,3.9,3.52c0,0.07,0.01,0.15,0,0.23c-0.66-0.46-1.46-0.71-2.32-0.67l-29.14,1.49 c-1.03,0.05-1.93,0.52-2.57,1.22c-0.59,0.65-0.95,1.51-0.96,2.46C131.44,437.11,130.83,436.07,130.77,434.88z" style="fill: rgb(249, 143, 181);"/>
      </g>
      <g>
        <path class="st9" d="M118.61,468.37l14.56,25.29c1.03,1.78,0.41,4.05-1.37,5.08l0,0c-1.78,1.02-4.05,0.41-5.08-1.37l-14.56-25.29 c-1.02-1.78-0.41-4.05,1.37-5.08l0,0C115.31,465.97,117.59,466.59,118.61,468.37z" style="fill: rgb(253, 219, 6);"/>
        <path class="st9" d="M113.53,467.01c0.89-0.51,1.9-0.62,2.82-0.37c0.92,0.25,1.75,0.84,2.26,1.73l14.56,25.3 c1.02,1.78,0.4,4.05-1.38,5.08c-0.17,0.1-0.34,0.18-0.51,0.24c0.02-0.66-0.13-1.35-0.49-1.98l-14.57-25.3 c-0.51-0.89-1.34-1.48-2.25-1.74c-0.75-0.2-1.55-0.16-2.31,0.13C111.71,468.87,112.37,467.67,113.53,467.01z" style="fill: rgb(253, 219, 6);"/>
      </g>
      <g>
        <path class="st9" d="M67.34,443.29l14.56,25.29c1.03,1.78,0.41,4.05-1.37,5.08l0,0c-1.78,1.02-4.05,0.41-5.08-1.37L60.89,447 c-1.02-1.78-0.41-4.05,1.37-5.08l0,0C64.04,440.9,66.31,441.51,67.34,443.29z" style="fill: rgb(253, 219, 6);"/>
        <path class="st9" d="M62.25,441.93c0.89-0.51,1.9-0.62,2.82-0.37c0.92,0.25,1.75,0.84,2.26,1.73l14.56,25.3 c1.02,1.78,0.4,4.05-1.38,5.08c-0.17,0.1-0.34,0.18-0.51,0.24c0.02-0.66-0.13-1.35-0.49-1.98l-14.57-25.3 c-0.51-0.89-1.34-1.48-2.25-1.74c-0.75-0.2-1.55-0.16-2.31,0.13C60.44,443.79,61.1,442.59,62.25,441.93z" style="fill: rgb(253, 219, 6);"/>
      </g>
      <g>
        <path class="st9" d="M117.98,556.15l20.54-8.44c1.45-0.59,3.1,0.1,3.69,1.54l0,0c0.59,1.45-0.1,3.1-1.54,3.69l-20.54,8.44 c-1.45,0.59-3.1-0.1-3.69-1.54l0,0C115.84,558.4,116.53,556.75,117.98,556.15z" style="fill: rgb(253, 219, 6);"/>
        <path class="st16" d="M116.44,559.84c-0.3-0.72-0.28-1.49,0-2.16c0.28-0.66,0.82-1.23,1.54-1.52l20.55-8.44 c1.45-0.59,3.09,0.09,3.69,1.54c0.02,0.05,0.04,0.11,0.05,0.16c-0.59-0.16-1.23-0.14-1.83,0.1l-20.54,8.44 c-0.72,0.3-1.25,0.86-1.54,1.52c-0.26,0.61-0.3,1.33-0.07,2.01C117.49,561.27,116.78,560.68,116.44,559.84z" style="fill: rgb(249, 143, 181);"/>
      </g>
      <g>
        <path class="st9" d="M194.35,452.12l20.54-8.44c1.45-0.59,3.1,0.1,3.69,1.54l0,0c0.59,1.45-0.1,3.1-1.54,3.69l-20.54,8.44 c-1.45,0.59-3.1-0.1-3.69-1.54l0,0C192.22,454.37,192.91,452.72,194.35,452.12z" style="fill: rgb(253, 219, 6);"/>
        <path class="st16" d="M192.81,455.81c-0.3-0.72-0.28-1.49,0-2.16c0.28-0.66,0.82-1.23,1.54-1.52l20.55-8.44 c1.45-0.59,3.09,0.09,3.69,1.54c0.02,0.05,0.04,0.11,0.06,0.16c-0.59-0.16-1.23-0.14-1.83,0.1l-20.54,8.44 c-0.72,0.3-1.25,0.86-1.54,1.52c-0.26,0.61-0.3,1.33-0.07,2.01C193.86,457.24,193.16,456.65,192.81,455.81z" style="fill: rgb(249, 143, 181);"/>
      </g>
      <g>
        <path class="st9" d="M219.49,536.86l2.68,29.06c0.19,2.05-1.32,3.86-3.36,4.05l0,0c-2.05,0.19-3.86-1.32-4.05-3.36l-2.68-29.06 c-0.19-2.05,1.32-3.86,3.36-4.05l0,0C217.49,533.31,219.3,534.82,219.49,536.86z" style="fill: rgb(253, 219, 6);"/>
        <path class="st16" d="M215.45,533.51c1.02-0.09,1.98,0.23,2.72,0.84c0.72,0.61,1.23,1.5,1.32,2.52l2.68,29.07 c0.19,2.05-1.31,3.85-3.36,4.04c-0.07,0.01-0.15,0.01-0.23,0.01c0.43-0.68,0.65-1.49,0.58-2.34l-2.68-29.05 c-0.09-1.02-0.6-1.91-1.32-2.52c-0.67-0.56-1.55-0.89-2.5-0.86C213.25,534.27,214.26,533.62,215.45,533.51z" style="fill: rgb(249, 143, 181);"/>
      </g>
      <g>
        <path class="st9" d="M106.91,386.58l2.68,29.06c0.19,2.05-1.32,3.86-3.36,4.05l0,0c-2.05,0.19-3.86-1.32-4.05-3.36l-2.68-29.06 c-0.19-2.05,1.32-3.86,3.36-4.05l0,0C104.91,383.03,106.72,384.53,106.91,386.58z" style="fill: rgb(253, 219, 6);"/>
        <path class="st16" d="M102.87,383.22c1.02-0.09,1.98,0.23,2.72,0.84c0.72,0.61,1.23,1.5,1.32,2.52l2.68,29.07 c0.19,2.05-1.31,3.85-3.36,4.04c-0.07,0.01-0.15,0.01-0.23,0.01c0.43-0.68,0.65-1.49,0.58-2.34l-2.68-29.05 c-0.09-1.02-0.6-1.91-1.32-2.52c-0.67-0.56-1.55-0.89-2.5-0.86C100.67,383.99,101.68,383.33,102.87,383.22z" style="fill: rgb(249, 143, 181);"/>
      </g>
      <g>
        <path class="st9" d="M180.65,489.65l-4.99,28.76c-0.35,2.02-2.28,3.38-4.3,3.03l0,0c-2.02-0.35-3.38-2.28-3.03-4.3l4.99-28.76 c0.35-2.02,2.28-3.38,4.3-3.03l0,0C179.64,485.7,181,487.63,180.65,489.65z" style="fill: rgb(253, 219, 6);"/>
        <path class="st9" d="M177.61,485.36c1.01,0.18,1.86,0.74,2.41,1.52c0.55,0.78,0.81,1.77,0.63,2.78l-4.99,28.76 c-0.35,2.02-2.28,3.37-4.31,3.02c-0.19-0.03-0.37-0.08-0.55-0.14c0.44-0.49,0.77-1.12,0.89-1.83l4.99-28.76 c0.18-1.01-0.08-2-0.62-2.78c-0.45-0.63-1.09-1.12-1.86-1.38C175.02,485.62,176.29,485.13,177.61,485.36z" style="fill: rgb(253, 219, 6);"/>
      </g>
      <g>
        <path class="st9" d="M255.75,486.99l-28.45,6.5c-2,0.46-4-0.8-4.45-2.8l0,0c-0.46-2,0.8-4,2.8-4.45l28.45-6.5 c2-0.46,4,0.8,4.45,2.8l0,0C259,484.54,257.75,486.53,255.75,486.99z" style="fill: rgb(253, 219, 6);"/>
        <path class="st9" d="M258.54,482.53c0.23,1,0.04,2-0.47,2.81c-0.51,0.81-1.32,1.43-2.32,1.66l-28.46,6.5 c-2,0.46-3.99-0.8-4.45-2.81c-0.04-0.19-0.07-0.37-0.08-0.56c0.63,0.22,1.33,0.27,2.03,0.11l28.46-6.5 c1-0.23,1.81-0.85,2.32-1.64c0.41-0.66,0.61-1.44,0.55-2.25C257.29,480.25,258.24,481.23,258.54,482.53z" style="fill: rgb(253, 219, 6);"/>
      </g>
    </g>
  </g>
</svg>