<?xml version="1.0" encoding="utf-8"?>
<svg viewBox="67.431 16.134 222.308 223.188" width="222.308" height="223.188" xmlns="http://www.w3.org/2000/svg" xmlns:xlink="http://www.w3.org/1999/xlink">
  <defs>
    <linearGradient gradientUnits="userSpaceOnUse" y2="131.85291" x2="110.14919" y1="77.070274" x1="55.549179" id="linearGradient9521" xlink:href="#linearGradient9515"/>
    <linearGradient id="linearGradient9515">
      <stop id="stop9517" offset="0" style="stop-color:#387eb8;stop-opacity:1"/>
      <stop id="stop9519" offset="1" style="stop-color:#366994;stop-opacity:1"/>
    </linearGradient>
    <linearGradient gradientUnits="userSpaceOnUse" y2="168.1012" x2="147.77737" y1="111.92053" x1="89.136749" id="linearGradient11307" xlink:href="#linearGradient11301"/>
    <linearGradient id="linearGradient11301">
      <stop id="stop11303" offset="0" style="stop-color:#ffe052;stop-opacity:1"/>
      <stop id="stop11305" offset="1" style="stop-color:#ffc331;stop-opacity:1"/>
    </linearGradient>
  </defs>
  <g id="layer1" transform="matrix(1.95184, 0, 0, 1.95184, -849.709167, -475.19223)" style="">
    <g id="g1894" transform="translate(428.42338,184.2561)">
      <path style="opacity:1;color:#000000;fill:url(#linearGradient9521);fill-opacity:1;fill-rule:nonzero;stroke:none;stroke-width:1;stroke-linecap:butt;stroke-linejoin:miter;marker:none;marker-start:none;marker-mid:none;marker-end:none;stroke-miterlimit:4;stroke-dasharray:none;stroke-dashoffset:0;stroke-opacity:1;visibility:visible;display:inline;overflow:visible" d="M 99.75,67.46875 C 71.718268,67.468752 73.46875,79.625 73.46875,79.625 L 73.5,92.21875 L 100.25,92.21875 L 100.25,96 L 62.875,96 C 62.875,96 44.9375,93.965724 44.9375,122.25 C 44.937498,150.53427 60.59375,149.53125 60.59375,149.53125 L 69.9375,149.53125 L 69.9375,136.40625 C 69.9375,136.40625 69.433848,120.75 85.34375,120.75 C 101.25365,120.75 111.875,120.75 111.875,120.75 C 111.875,120.75 126.78125,120.99096 126.78125,106.34375 C 126.78125,91.696544 126.78125,82.125 126.78125,82.125 C 126.78125,82.124998 129.04443,67.46875 99.75,67.46875 z M 85,75.9375 C 87.661429,75.937498 89.8125,78.088571 89.8125,80.75 C 89.812502,83.411429 87.661429,85.5625 85,85.5625 C 82.338571,85.562502 80.1875,83.411429 80.1875,80.75 C 80.187498,78.088571 82.338571,75.9375 85,75.9375 z " id="path8615"/>
      <path id="path8620" d="M 100.5461,177.31485 C 128.57784,177.31485 126.82735,165.1586 126.82735,165.1586 L 126.7961,152.56485 L 100.0461,152.56485 L 100.0461,148.7836 L 137.4211,148.7836 C 137.4211,148.7836 155.3586,150.81787 155.3586,122.53359 C 155.35861,94.249323 139.70235,95.252343 139.70235,95.252343 L 130.3586,95.252343 L 130.3586,108.37734 C 130.3586,108.37734 130.86226,124.03359 114.95235,124.03359 C 99.042448,124.03359 88.421098,124.03359 88.421098,124.03359 C 88.421098,124.03359 73.514848,123.79263 73.514848,138.43985 C 73.514848,153.08705 73.514848,162.6586 73.514848,162.6586 C 73.514848,162.6586 71.251668,177.31485 100.5461,177.31485 z M 115.2961,168.8461 C 112.63467,168.8461 110.4836,166.69503 110.4836,164.0336 C 110.4836,161.37217 112.63467,159.2211 115.2961,159.2211 C 117.95753,159.2211 120.1086,161.37217 120.1086,164.0336 C 120.10861,166.69503 117.95753,168.8461 115.2961,168.8461 z " style="opacity:1;color:#000000;fill:url(#linearGradient11307);fill-opacity:1;fill-rule:nonzero;stroke:none;stroke-width:1;stroke-linecap:butt;stroke-linejoin:miter;marker:none;marker-start:none;marker-mid:none;marker-end:none;stroke-miterlimit:4;stroke-dasharray:none;stroke-dashoffset:0;stroke-opacity:1;visibility:visible;display:inline;overflow:visible"/>
    </g>
  </g>
  <g id="svgg" transform="matrix(0.434502, 0, 0, 0.434502, 89.698822, 80.787201)" style="">
    <path id="path0" d="M271.380 0.757 C 270.650 1.152,268.128 1.675,265.775 1.918 C 259.920 2.524,251.617 8.645,250.504 13.176 C 250.346 13.824,249.823 14.915,249.343 15.602 C 248.863 16.289,248.471 16.978,248.471 17.134 C 248.471 17.289,247.922 18.527,247.252 19.885 C 245.281 23.876,245.118 24.774,244.786 33.412 C 244.496 40.968,244.368 41.861,243.237 44.235 C 241.001 48.928,241.130 49.880,244.263 51.817 C 246.123 52.966,247.059 54.678,247.059 56.929 C 247.059 57.665,247.549 58.649,248.236 59.295 C 249.654 60.627,250.347 62.906,250.350 66.250 C 250.357 72.163,255.930 75.526,261.104 72.739 C 264.784 70.756,266.353 71.164,266.353 74.102 C 266.353 77.654,263.488 80.864,258.118 83.327 C 256.824 83.921,255.117 85.056,254.326 85.850 C 251.035 89.152,246.664 92.706,245.894 92.706 C 245.441 92.706,244.299 93.112,243.358 93.607 C 242.417 94.103,240.248 95.165,238.538 95.967 C 236.827 96.769,235.048 97.845,234.582 98.359 C 234.117 98.874,233.491 99.294,233.192 99.294 C 231.098 99.294,212.244 110.242,210.118 112.692 C 208.917 114.075,203.214 118.560,200.524 120.235 C 198.848 121.280,191.992 127.203,188.269 130.824 C 187.603 131.471,186.209 132.546,185.171 133.213 C 184.133 133.880,182.672 134.991,181.926 135.683 C 181.179 136.375,180.123 136.944,179.578 136.948 C 179.034 136.952,178.059 137.264,177.412 137.641 C 176.765 138.018,175.701 138.597,175.048 138.928 C 173.506 139.709,170.353 142.250,170.353 142.711 C 170.353 144.655,163.371 152.135,158.000 155.946 C 156.253 157.186,154.824 158.425,154.824 158.699 C 154.824 159.712,151.368 163.368,148.695 165.184 C 147.178 166.214,145.660 167.450,145.322 167.931 C 144.983 168.413,144.229 168.957,143.647 169.141 C 143.065 169.325,142.588 169.695,142.588 169.964 C 142.588 170.233,142.042 171.118,141.374 171.932 C 140.707 172.746,139.701 174.006,139.139 174.732 C 138.577 175.459,137.535 176.757,136.824 177.618 C 135.435 179.298,135.204 180.668,136.074 182.062 C 136.842 183.292,136.332 184.249,134.185 185.605 C 132.883 186.426,131.954 187.563,131.089 189.391 C 130.207 191.254,128.111 193.790,123.773 198.237 C 120.430 201.665,116.673 205.847,115.426 207.529 C 113.204 210.527,109.604 213.139,107.657 213.165 C 104.862 213.203,96.684 219.266,97.030 221.044 C 97.255 222.205,108.903 222.326,109.813 221.176 C 110.417 220.413,111.501 219.744,114.880 218.046 C 116.075 217.445,117.875 216.141,118.880 215.148 C 121.629 212.431,124.130 212.233,126.749 214.525 C 127.894 215.526,130.142 213.183,130.618 210.491 C 130.915 208.816,133.717 205.176,134.711 205.176 C 135.956 205.176,142.624 197.791,142.895 196.111 C 143.187 194.307,143.193 194.302,146.427 193.674 C 147.389 193.487,154.572 199.200,156.418 201.620 C 157.162 202.595,158.646 203.953,159.716 204.638 C 161.658 205.880,163.604 207.345,167.153 210.235 C 170.026 212.576,171.756 212.233,172.504 209.174 C 172.694 208.399,173.293 207.196,173.836 206.500 C 174.379 205.804,175.536 204.269,176.408 203.088 C 177.279 201.907,178.183 200.941,178.415 200.941 C 178.648 200.941,179.418 200.290,180.125 199.494 C 180.833 198.698,182.243 197.269,183.259 196.318 C 184.276 195.366,185.482 194.229,185.939 193.791 C 186.397 193.352,188.265 192.220,190.092 191.275 C 191.918 190.330,193.510 189.398,193.631 189.203 C 193.751 189.008,195.233 188.040,196.925 187.051 C 198.616 186.062,200.000 185.062,200.000 184.830 C 200.000 184.598,200.510 183.734,201.134 182.910 C 201.758 182.086,202.340 180.882,202.428 180.235 C 202.557 179.289,203.389 178.645,206.685 176.941 C 208.938 175.776,212.538 173.634,214.685 172.181 C 216.832 170.727,220.004 168.758,221.733 167.805 C 224.123 166.488,225.177 165.563,226.117 163.958 C 227.975 160.788,229.852 158.851,232.008 157.879 L 233.946 157.005 235.061 158.385 C 237.735 161.693,239.034 166.769,239.568 176.000 C 239.815 180.271,240.248 185.776,240.531 188.235 C 241.280 194.766,238.449 199.981,233.771 200.689 C 231.988 200.959,227.820 202.611,225.882 203.816 C 224.010 204.980,220.376 206.580,219.593 206.584 C 218.293 206.590,215.164 208.408,212.235 210.857 C 210.812 212.048,208.494 213.639,207.086 214.393 C 205.677 215.148,204.045 216.241,203.460 216.824 C 202.875 217.406,202.101 217.882,201.741 217.882 C 201.381 217.882,200.715 218.294,200.259 218.797 C 199.804 219.300,198.828 219.844,198.091 220.006 C 197.353 220.168,196.264 220.670,195.669 221.122 C 194.422 222.069,190.005 224.000,189.085 224.000 C 188.742 224.000,188.216 224.393,187.916 224.874 C 187.398 225.703,180.344 230.118,179.537 230.118 C 179.327 230.118,178.049 230.853,176.695 231.751 C 174.316 233.331,170.038 235.151,165.647 236.453 C 164.482 236.798,162.603 237.420,161.470 237.835 C 160.338 238.249,158.935 238.588,158.353 238.588 C 157.771 238.588,156.368 238.917,155.236 239.320 C 154.103 239.722,150.741 240.264,147.765 240.523 C 144.100 240.843,141.973 241.252,141.176 241.792 C 140.529 242.230,139.153 243.028,138.118 243.566 C 137.082 244.104,134.647 245.541,132.706 246.759 C 127.858 249.803,128.305 249.582,123.059 251.517 C 120.471 252.472,116.976 253.856,115.294 254.592 C 113.612 255.329,110.875 256.371,109.212 256.908 C 107.549 257.446,105.855 258.174,105.447 258.527 C 105.039 258.879,104.071 259.319,103.294 259.503 C 102.518 259.687,101.565 260.115,101.176 260.454 C 99.687 261.753,94.865 264.000,93.565 264.000 C 92.817 264.000,91.205 264.499,89.984 265.108 C 88.764 265.717,85.329 266.796,82.353 267.506 C 79.376 268.215,76.471 268.980,75.897 269.205 C 75.322 269.430,73.522 269.950,71.897 270.360 C 67.624 271.438,62.215 273.179,55.756 275.556 C 49.536 277.844,43.696 279.265,36.399 280.265 C 26.779 281.584,20.096 283.926,15.059 287.744 C 13.894 288.627,12.712 289.363,12.433 289.381 C 12.153 289.398,9.846 291.424,7.306 293.882 C 4.766 296.341,2.547 298.353,2.374 298.353 C -0.171 298.353,-0.973 304.774,1.301 306.953 C 4.370 309.893,7.892 310.005,18.588 307.499 C 20.141 307.135,22.499 306.834,23.828 306.830 C 27.602 306.820,30.580 304.985,31.670 301.999 C 32.316 300.231,36.211 298.354,39.269 298.338 C 40.836 298.330,44.341 298.019,47.059 297.647 C 52.558 296.895,66.368 296.749,69.647 297.408 C 70.812 297.642,76.424 297.980,82.118 298.159 C 88.449 298.358,94.116 298.791,96.706 299.276 L 100.941 300.068 101.090 301.584 C 101.434 305.080,109.074 310.118,114.032 310.118 C 115.253 310.118,120.420 308.591,121.915 307.788 C 122.322 307.570,124.334 306.720,126.386 305.899 C 128.438 305.078,131.489 303.752,133.164 302.954 C 134.840 302.155,137.318 301.012,138.671 300.414 L 141.130 299.326 147.389 300.234 L 153.647 301.141 155.670 300.165 C 156.782 299.628,159.006 298.289,160.612 297.189 C 165.148 294.083,167.966 292.790,171.363 292.255 C 173.084 291.984,175.413 291.344,176.540 290.833 C 177.666 290.321,179.179 289.898,179.901 289.893 C 180.623 289.887,182.029 289.466,183.026 288.958 C 185.513 287.689,194.967 285.803,200.931 285.385 L 205.863 285.040 204.599 286.696 C 203.905 287.608,202.372 290.318,201.195 292.720 C 200.017 295.121,198.845 297.337,198.590 297.644 C 194.401 302.692,194.523 305.526,198.993 307.008 C 207.269 309.754,213.314 305.293,219.713 291.719 C 220.518 290.012,221.184 288.423,221.193 288.190 C 221.203 287.956,221.714 287.149,222.330 286.395 L 223.449 285.026 233.960 285.320 C 241.261 285.525,245.333 285.844,247.294 286.366 C 251.409 287.460,258.726 287.749,264.471 287.043 C 267.188 286.709,270.153 286.443,271.059 286.451 C 283.418 286.569,308.149 285.336,311.798 284.420 C 312.647 284.207,312.999 284.355,313.195 285.009 C 313.340 285.489,313.871 286.665,314.376 287.623 C 314.881 288.580,315.294 289.607,315.294 289.904 C 315.294 290.202,315.648 291.192,316.081 292.105 C 316.753 293.521,316.779 293.979,316.261 295.235 C 315.927 296.044,315.393 298.188,315.074 300.000 C 314.756 301.812,314.059 304.247,313.527 305.412 C 311.777 309.243,310.179 314.059,309.438 317.741 C 309.036 319.733,308.461 321.906,308.159 322.568 C 306.525 326.153,309.944 328.017,317.499 327.660 C 323.041 327.398,323.371 327.434,324.269 328.398 C 324.788 328.956,325.613 329.412,326.102 329.412 C 326.591 329.412,327.282 329.702,327.636 330.057 C 329.384 331.804,334.330 333.328,339.960 333.855 C 341.749 334.023,344.442 334.574,345.945 335.080 C 349.237 336.189,361.285 336.415,363.245 335.405 C 365.771 334.102,365.499 332.805,362.024 329.577 C 359.500 327.233,358.960 326.499,359.420 326.039 C 360.346 325.113,360.131 324.808,357.832 323.791 C 356.640 323.263,354.998 322.122,354.185 321.254 C 352.873 319.854,347.867 315.858,345.835 314.588 C 340.241 311.093,339.768 310.497,340.962 308.439 C 341.468 307.567,342.716 305.418,343.734 303.662 C 345.526 300.573,348.168 297.359,350.580 295.334 C 351.223 294.794,353.434 292.712,355.493 290.706 C 357.553 288.700,359.395 287.059,359.587 287.059 C 359.779 287.059,360.081 286.602,360.259 286.044 L 360.580 285.030 371.702 285.408 C 384.479 285.842,385.969 285.845,387.550 285.449 L 388.706 285.159 388.706 276.260 C 388.706 267.224,389.182 261.889,390.368 257.647 C 391.771 252.625,391.228 235.903,389.530 231.877 C 387.275 226.530,380.489 222.431,374.617 222.868 C 369.999 223.211,366.978 222.598,365.932 221.104 C 365.196 220.054,360.850 218.091,358.118 217.575 C 357.212 217.404,355.772 216.973,354.919 216.616 C 354.066 216.260,350.796 215.651,347.654 215.261 C 332.454 213.380,327.599 210.699,326.059 203.339 C 324.367 195.246,325.451 190.496,330.109 185.587 C 332.786 182.765,333.427 181.782,335.058 177.993 C 336.030 175.732,336.973 172.718,337.152 171.294 C 337.330 169.871,337.815 167.012,338.228 164.941 C 338.641 162.871,338.973 160.435,338.964 159.529 C 338.948 157.717,339.606 149.647,340.250 143.765 C 341.248 134.652,341.688 131.768,342.374 129.831 C 342.776 128.694,343.517 125.649,344.020 123.064 C 345.010 117.967,345.506 117.239,348.706 116.180 C 350.565 115.565,355.607 113.103,356.412 112.417 C 356.703 112.169,357.620 111.482,358.450 110.889 C 359.999 109.784,362.362 106.581,364.010 103.353 C 364.522 102.351,366.276 100.127,367.908 98.412 C 370.832 95.339,375.059 90.191,375.059 89.704 C 375.059 89.407,376.863 86.747,377.969 85.412 C 382.053 80.483,383.507 78.520,384.415 76.706 C 384.997 75.541,386.086 73.741,386.833 72.706 C 387.581 71.671,388.747 69.672,389.425 68.264 C 390.102 66.857,391.731 63.892,393.044 61.676 C 398.785 51.987,399.321 50.327,399.834 40.655 L 400.061 36.369 397.915 34.480 C 396.308 33.065,394.616 32.212,391.178 31.084 C 388.586 30.233,385.462 28.802,384.000 27.797 C 380.204 25.186,376.538 23.752,369.412 22.091 C 365.918 21.276,362.286 20.206,361.342 19.713 C 360.254 19.146,357.761 18.629,354.545 18.305 C 351.150 17.964,348.209 17.336,345.674 16.413 C 342.857 15.386,340.174 14.858,335.238 14.360 C 331.420 13.974,327.717 13.330,326.532 12.844 C 323.613 11.649,312.186 11.673,309.412 12.880 L 307.529 13.699 306.471 12.471 C 305.888 11.795,305.412 10.974,305.412 10.647 C 305.412 10.320,304.882 9.592,304.235 9.029 C 303.588 8.467,303.059 7.818,303.059 7.589 C 303.059 7.359,301.841 6.573,300.353 5.843 C 298.865 5.113,297.361 4.303,297.012 4.043 C 292.635 0.792,275.393 -1.419,271.380 0.757 M339.077 35.315 C 341.564 36.599,346.250 38.457,348.000 38.854 C 354.579 40.344,356.906 46.618,351.730 48.908 C 350.667 49.378,349.030 50.531,348.091 51.470 C 347.152 52.408,346.232 53.176,346.046 53.176 C 345.860 53.176,344.741 53.981,343.560 54.964 C 340.392 57.600,338.753 58.646,337.202 59.022 C 336.440 59.207,335.093 59.993,334.209 60.769 C 332.220 62.516,330.838 63.059,328.386 63.059 C 327.338 63.059,325.711 63.482,324.770 63.999 C 321.543 65.773,313.232 66.684,315.601 65.004 C 317.507 63.653,317.867 61.976,317.880 54.387 L 317.893 46.892 319.874 45.446 C 321.867 43.990,324.231 41.184,324.240 40.262 C 324.243 39.988,325.884 38.549,327.887 37.062 C 332.142 33.905,335.370 33.402,339.077 35.315 M329.808 280.570 C 328.921 284.515,327.638 284.391,327.562 280.353 C 327.532 278.713,327.625 278.588,328.891 278.588 C 330.248 278.588,330.251 278.595,329.808 280.570 " stroke="none" fill-rule="evenodd" style=""/>
  </g>
</svg>